<svg version="1.1" xmlns="http://www.w3.org/2000/svg" xmlns:xlink="http://www.w3.org/1999/xlink" width="57.60101" height="25.42172" viewBox="0,0,57.60101,25.42172"><g transform="translate(-210.57844,-164.3375)"><g data-paper-data="{&quot;isPaintingLayer&quot;:true}" fill-rule="nonzero" stroke="none" stroke-width="0.5" stroke-linecap="butt" stroke-linejoin="miter" stroke-miterlimit="10" stroke-dasharray="" stroke-dashoffset="0" style="mix-blend-mode: normal"><g fill="#f900ff"><path d="M243.44458,180.92644c0.60499,0 0.84029,0.36969 0.93182,0.65726c1.26058,1.62122 1.30428,5.19055 -1.35537,5.76341c-0.564,0.12148 -1.10211,-0.34166 -1.65318,-0.51248c-1.40717,-1.08125 -1.88169,-2.06753 -2.74594,-3.38858c0.22846,1.63184 0.52579,3.23717 0.79997,4.76622c0.1624,0.24811 0.36529,0.74196 -0.12857,1.23582c-0.70009,0.70009 -1.40017,0 -1.40017,0l-0.37392,-0.62703c-0.95852,-5.48667 -2.15644,-11.67377 -0.15005,-17.05387c0,0 0.34764,-0.92703 1.27467,-0.5794c0.76618,0.28732 0.66166,0.97041 0.60232,1.19881c3.20595,-0.49991 5.83363,1.5124 4.43897,5.10713c-1.02586,2.64416 -3.47167,1.7911 -5.42208,2.26021c0.00561,0.12538 0.01203,0.25082 0.0192,0.37631c0.21736,0.18472 0.54254,0.40286 0.68183,0.56604c0.35726,0.41852 0.74263,0.81714 1.05177,1.27236c0.86784,1.27791 1.08286,2.15569 2.33721,3.14834c0.73106,0.62509 1.38696,-1.87446 0.49746,-2.3094l-0.39603,-0.89106c0,0 0,-0.99007 0.99007,-0.99007zM241.54206,177.27968c0.59164,-0.33752 0.42047,-2.58321 0.16068,-3.03549c-0.23415,-0.40766 -1.99002,0.06049 -2.32129,0.12856c0,0 -0.37241,0.07448 -0.70206,-0.09947c-0.26785,1.16459 -0.39986,2.36689 -0.43465,3.586c1.18223,-0.18695 2.65128,-0.21105 3.29732,-0.57961z"/><path d="M250.83414,175.43266c-0.34763,-0.92703 0.5794,-1.27467 0.5794,-1.27467l0.14962,0.63001c0.03851,-2.09863 -2.04945,-1.33322 -3.88435,-1.191c0,0 -0.02738,0.00211 -0.07336,0.00106c0.30802,1.37698 0.35027,2.83506 0.34313,4.30521c0.80784,-0.03756 1.60852,-0.04604 2.42649,-0.04604l0.43127,-0.08554c0,0 0.9766,-0.16277 1.13936,0.81383c0.16277,0.9766 -0.81383,1.13937 -0.81383,1.13937l-0.75681,0.11248c-0.82547,0 -1.63102,0.00758 -2.4464,0.04872c-0.00596,1.11541 0.01574,2.21986 0.1602,3.28302c0.05111,0.37613 -0.05989,2.70424 0.0038,2.79977c0.25781,0.38673 0.92656,-0.09591 1.39134,-0.09208c2.25913,0.01861 1.98014,-1.0252 1.98014,-2.8712v-0.39603c0,0 0,-0.99007 0.99007,-0.99007c0.99007,0 0.99007,0.99007 0.99007,0.99007v0.39603c0,0.23371 0.02032,2.61839 -0.06326,2.82341c-0.80204,1.96735 -5.30704,3.12069 -6.86199,1.34181c-0.47286,-0.54095 -0.28626,-2.96045 -0.39222,-3.73469c-0.44752,-3.26972 0.4813,-7.33568 -0.73511,-10.37184c0,0 -0.35542,-0.92408 0.56866,-1.27949c0.42526,-0.16357 0.7301,-0.05614 0.93527,0.10748c0.26877,-0.24167 0.6313,-0.26956 0.6313,-0.26956c2.95926,-0.226 5.96725,-0.63405 6.01636,3.16531l-1.43449,1.22405c0,0 -0.92703,0.34763 -1.27467,-0.5794z"/><path d="M263.74102,177.85722c-0.99007,0 -0.99007,-0.99007 -0.99007,-0.99007l0.00123,-1.03939c0.05648,-0.56506 0.15516,-2.20501 0.53484,-2.57597c1.72722,-1.68752 3.32139,-0.3663 4.21936,1.1111c1.10778,2.78375 0.90165,4.6865 -1.01853,6.99198c-0.86033,1.03296 -1.25677,2.22015 -3.03265,1.80657c-1.19841,-0.2791 -1.87479,-2.36709 -2.30048,-3.31452c-0.78076,-1.73771 -1.66503,-3.26434 -2.86951,-4.59584c0.43793,3.27947 1.04071,6.55098 0.49198,9.89741l-0.28907,0.67603c0,0 -0.44277,0.88555 -1.32832,0.44277c-0.88554,-0.44278 -0.44277,-1.32832 -0.44277,-1.32832l0.10696,-0.11602c0.68616,-4.04202 -0.45313,-8.05632 -0.80211,-12.03188c0,0 -0.08222,-0.98665 0.90443,-1.06887c0.48597,-0.04049 0.75253,0.17831 0.89791,0.41081c2.1327,1.66354 3.36867,3.48497 4.61435,5.85634c0.36298,0.69098 0.91289,2.86503 1.58826,3.27626c0.42368,0.25798 0.62241,-0.77261 0.92764,-1.16363c1.35465,-1.73544 1.62824,-2.742 0.76359,-4.88886c-0.71802,-1.61227 -0.90108,-0.15749 -0.9882,0.71329l0.00123,0.94075c0,0 0,0.99007 -0.99007,0.99007z"/></g><path d="M226.92685,188.88837c-0.78087,0.97609 -1.75695,0.19522 -1.75695,0.19522l-0.86817,-0.75926c-0.5675,-0.81091 -1.31068,-1.51824 -1.72385,-2.41764c-1.24233,-2.70433 -0.28002,-4.67678 0.83717,-6.77194c-2.82854,0.05604 -5.69563,0.15412 -8.4779,-0.15996c-0.96316,-0.10873 -4.22325,-0.41885 -4.35768,-2.14617c-0.0662,-0.8507 3.1035,-3.17884 3.87514,-3.72399c1.49723,-1.05776 3.30849,-1.51866 4.91867,-2.35574c3.17984,-1.65308 5.97581,-4.00261 8.82749,-6.1414c0,0 1,-0.75 1.75,0.25c0.53076,0.70768 0.1851,1.29015 -0.06234,1.57022c0.10813,0.36094 0.03257,0.70094 0.03257,0.70094c-0.69021,3.09908 -1.43294,6.4567 -2.57355,9.48377c1.02606,0.00974 2.04449,0.03864 3.08212,0.12438l-0.16282,-0.12235c0,0 1.11803,-0.55902 1.67705,0.55902c0.55902,1.11803 -0.55902,1.67705 -0.55902,1.67705l-1.16282,0.37765c-1.35876,-0.11425 -2.68064,-0.12068 -4.03656,-0.12075c-1.05053,1.75989 -2.41316,3.5852 -1.36173,5.70088c0.38299,0.77066 1.03256,1.3774 1.52615,2.08236l0.38183,0.24074c0,0 0.97609,0.78087 0.19522,1.75695zM217.36312,174.36111c-0.30863,0.1455 -1.65839,1.2811 -2.76934,1.95757c1.3125,0.0464 2.99351,0.28272 3.01027,0.28313c2.34857,0.05641 4.70413,0.01885 7.05521,0.00824c1.04304,-2.51739 1.75968,-5.33326 2.3796,-8.05013c-3.08003,2.19756 -6.15261,4.14032 -9.67574,5.80119z" fill="#f900ff"/></g></g></svg>