<svg version="1.1" xmlns="http://www.w3.org/2000/svg" xmlns:xlink="http://www.w3.org/1999/xlink" width="58.22262" height="21.49162" viewBox="0,0,58.22262,21.49162"><g transform="translate(-208.00993,-166.49527)"><g data-paper-data="{&quot;isPaintingLayer&quot;:true}" fill="#ff8000" fill-rule="nonzero" stroke="none" stroke-width="0.5" stroke-linecap="butt" stroke-linejoin="miter" stroke-miterlimit="10" stroke-dasharray="" stroke-dashoffset="0" style="mix-blend-mode: normal"><path d="M229.04881,183.9319c0.62292,-1.16394 0.39335,-2.50049 0.39335,-3.83787c0,-3.09848 -0.14286,-6.17714 -0.14286,-9.28571c0,0 0,-0.75 0.75,-0.75c0.75,0 0.75,0.75 0.75,0.75c0,3.86843 1.4558,10.93208 -0.69739,14.27317l-0.90975,0.33397c0,0 -0.24308,0 -0.45247,-0.13839c-0.17752,0.4241 -0.69038,0.4241 -0.69038,0.4241l-0.67319,-0.21967c-2.0524,-2.0524 -3.82595,-4.20525 -5.66441,-6.38856c0.12679,2.10159 0.44052,4.20179 0.79168,6.30636l0.0102,0.40901c0,0 0,0.75 -0.75,0.75c-0.75,0 -0.75,-0.75 -0.75,-0.75l0.0102,-0.16242c-0.4793,-2.87895 -0.91362,-5.803 -0.89688,-8.71832c-0.15078,-0.27069 -0.24561,-0.54873 -0.19438,-0.84599c0.00412,-0.0239 0.08646,-0.07038 0.21741,-0.12991c0.06081,-1.44592 0.24395,-2.8882 0.59909,-4.32027c0.19567,-0.78905 0.59276,-1.44608 0.96628,-2.12814c-0.33904,0.06533 -0.66356,0.16152 -0.95889,0.28711c0,0 -0.57448,0.22979 -0.88857,-0.24984l0.14467,0.86738c-2.04359,0.2898 -4.0779,0.46116 -6.11214,0.65955c-0.59799,5.54145 1.47036,9.98912 1.47036,15.45513v0.71429c0,0 0,0.75 -0.75,0.75c-0.75,0 -0.75,-0.75 -0.75,-0.75v-0.71429c0,-5.39731 -1.98408,-9.83277 -1.49263,-15.29938c-1.16244,0.12621 -2.3256,0.27308 -3.49121,0.46775c0,0 -0.7398,0.1233 -0.86309,-0.6165c-0.1233,-0.7398 0.6165,-0.86309 0.6165,-0.86309c3.62458,-0.60293 7.22427,-0.74417 10.84963,-1.24464c0.10295,-0.03561 0.19488,-0.04649 0.24146,-0.04982c0.08296,-0.36525 0.46795,-0.51925 0.46795,-0.51925c0.69539,-0.26625 1.4683,-0.42277 2.24583,-0.46026c0.13035,-0.18909 0.39071,-0.41938 0.84132,-0.26918c0.21666,0.07222 0.34535,0.18842 0.41956,0.31512c2.24438,0.27939 4.18391,1.63824 3.94785,4.31539c-0.20412,2.31496 -1.90281,3.56455 -3.99411,4.09432c-0.64343,0.16299 -1.25246,0.53405 -1.91152,0.56907c0.10065,0.07206 0.20066,0.14517 0.30326,0.214c2.05029,2.41722 3.95658,4.78967 6.19519,7.05356c0.07802,0.01976 0.16937,0.05322 0.25507,0.10987c0.11744,-0.28057 0.38165,-0.37553 0.54703,-0.40766zM222.12532,175.23108c1.54284,-0.44084 3.33407,-0.54096 3.92503,-2.36899c0.69683,-2.15553 -0.85104,-3.23192 -2.64148,-3.42791c-0.43312,0.8517 -0.9922,1.63323 -1.20216,2.55102c-0.25813,1.12833 -0.41489,2.25441 -0.49308,3.37911c0.18634,-0.06321 0.33554,-0.11148 0.4117,-0.13324z"/><path d="M234.44216,173.80832c0,-0.75 0.75,-0.75 0.75,-0.75l0.10381,0.02239c0.09775,-0.02398 0.20035,-0.0452 0.30729,-0.06407c0.22366,-2.17379 0.54003,-4.30415 0.99439,-6.52138c2.59254,0.26026 11.43034,1.42431 7.73612,5.94313c-1.72623,2.11154 -5.06749,1.60957 -7.6507,1.91506c-0.09002,3.58506 0.58972,7.34727 -1.27637,10.55501c0,0 -0.38587,0.64312 -1.02899,0.25725c-0.64312,-0.38587 -0.25725,-1.02899 -0.25725,-1.02899c1.28387,-2.05048 1.04516,-4.98579 1.18102,-7.31417c0.04499,-0.771 0.0977,-1.52834 0.15992,-2.27713l-0.26925,0.01289c0,0 -0.75,0 -0.75,-0.75zM236.77184,172.89285c2.51156,-0.15194 6.02277,0.07839 6.83324,-2.25685c0.65143,-1.877 -4.96273,-2.04477 -6.0078,-2.85138c0.9955,1.04754 -0.47496,2.97584 -0.67518,4.05315c-0.06475,0.34838 -0.11371,0.70032 -0.15025,1.05508z"/><path d="M253.51358,185.09403c0,0.75 -0.75,0.75 -0.75,0.75h-0.71429c-0.88419,0 -2.90926,0.214 -3.56333,-0.12895c-1.06563,-0.55874 -0.61524,-3.33457 -0.61524,-4.26391c0,-4.39474 -0.48317,-8.19814 -1.54904,-12.46096c0,0 -0.1819,-0.72761 0.54571,-0.90951c0.72761,-0.1819 0.90951,0.54571 0.90951,0.54571c0.85764,3.43109 1.58132,6.62647 1.59382,10.17945c0.00553,1.57191 0.01241,3.14485 0,4.71674c-0.0025,0.31712 -0.35933,0.91847 -0.04381,0.95038c0.80133,0.08104 1.88782,-0.12895 2.72239,-0.12895h0.71429c0,0 0.75,0 0.75,0.75z"/><path d="M258.56015,184.69483c0.30169,-0.21496 0.68311,-0.17682 0.68311,-0.17682c1.04686,0.10539 2.09942,0.17651 3.15157,0.17562h0.9016c0,0 0.94668,0 0.94668,0.94668c0,0.94668 -0.94668,0.94668 -0.94668,0.94668h-0.9016c-1.08095,-0.00085 -2.16222,-0.07032 -3.23821,-0.17501c-0.15475,0.1102 -0.34407,0.17501 -0.54852,0.17501c-0.2658,0 -0.50601,-0.10954 -0.67796,-0.28594c-0.00872,0.03671 -0.01756,0.07332 -0.02651,0.10982c0,0 -0.2296,0.91842 -1.14802,0.68881c-0.91842,-0.2296 -0.68881,-1.14802 -0.68881,-1.14802c1.10889,-4.34003 0.15516,-9.39526 0.15206,-13.83541c-0.00127,-1.80942 -0.65677,-4.15149 1.82994,-4.71234c1.33722,-0.3016 3.618,0.60394 4.98072,0.88517l0.98821,-0.00465c0,0 0.94668,0 0.94668,0.94668c0,0.94668 -0.94668,0.94668 -0.94668,0.94668l-1.17564,-0.00465c-0.65466,-0.12866 -4.59664,-1.38642 -4.84188,-0.67565c-0.44873,1.30056 0.196,3.83093 0.28996,5.25645c0.06828,1.0359 0.13634,2.14078 0.1789,3.27262c2.29752,0.02856 4.55422,0.17905 6.85781,0.31689l0.79984,1.28353c0,0 0.42337,0.84674 -0.42337,1.27011c-0.84674,0.42337 -1.27011,-0.42337 -1.27011,-0.42337l-0.10176,-0.51968c-1.91558,0.18512 -3.87646,0.01497 -5.81947,-0.02914c0.0094,1.65106 -0.0628,3.30979 -0.29169,4.85152c0.10458,-0.04702 0.21925,-0.07561 0.33985,-0.08162z"/></g></g></svg>