<svg viewBox="0,0,299.74343,346.1357" height="346.1357" width="299.74343" xmlns:xlink="http://www.w3.org/1999/xlink" xmlns="http://www.w3.org/2000/svg" version="1.1"><g transform="translate(-83.96096,-8.46854)"><g style="mix-blend-mode: normal" stroke-dashoffset="0" stroke-dasharray="" stroke-miterlimit="10" stroke-linejoin="miter" stroke-linecap="round" stroke="#000000" fill-rule="nonzero" data-paper-data="{&quot;isPaintingLayer&quot;:true}"><path stroke-width="6.5" fill="#c54447" d="M161.52925,21.90115c36.74667,-6.81776 134.00326,-16.99929 141.27764,-3.68273c17.25306,31.58364 77.45776,328.58548 77.45776,328.58548c0,0 -2.12223,3.45374 -49.88925,3.78601c-51.17666,0.35599 -52.53186,-3.97965 -52.53186,-3.97965c0,0 -2.30981,-69.35192 -5.23434,-90.91868c-0.2304,-1.69905 -83.44031,-5.17778 -86.33081,-1.2274c-0.65183,0.89085 -1.40623,4.54632 -2.20611,9.95534c-3.69974,25.01857 -6.47405,83.69111 -8.37281,85.77527c-4.15931,4.56544 -8.7514,1.64508 -41.58211,1.1598c-33.69727,-0.49809 -46.0595,-2.03035 -46.0595,-2.03035c0,0 4.52544,-58.69668 23.7789,-160.56214c23.69464,-126.61817 44.30078,-165.86063 49.69247,-166.86097z"></path><path stroke-width="6.5" fill="#ffffff" d="M183.55474,124.35805c2.45625,-14.98312 6.60161,-41.5666 10.54259,-43.19245c12.04943,-4.97098 49.31979,-6.06258 58.48351,-3.2021c1.7043,0.532 4.46667,14.14629 6.34296,23.75591c2.77453,14.21012 8.69076,53.24111 8.69076,53.24111c0,0 -26.47764,-2.96513 -40.76058,-1.32718c-15.1872,1.74165 -48.56829,11.18448 -47.81648,10.45625c1.13221,-1.0967 2.24794,-25.88882 4.51724,-39.73154z"></path><path stroke-width="6.5" fill="#ffffff" d="M97.54193,110.90173c6.54812,-7.14521 58.02898,-9.45545 64.42135,-6.18736c9.65328,4.93523 17.66725,48.15412 -1.81981,57.1421c-3.56236,1.64306 -30.48049,7.55024 -49.82568,6.74745c-8.20963,-0.34068 -9.38554,-0.39772 -16.05152,-4.92764c-6.88868,-4.68126 -6.47419,-13.09372 -6.97326,-19.64956c-1.12187,-14.7368 6.4163,-28.94289 10.24893,-33.125z"></path><path stroke-width="7" fill="#ffffff" d="M282.2994,102.40555c11.3068,-6.19999 63.26586,-5.86127 69.10075,-0.36756c7.44804,7.01254 6.7146,15.35869 7.38787,23.21594c1.12158,13.08922 -0.37769,24.82168 -1.50696,26.77183c-2.36336,4.08129 -25.75062,10.01276 -47.03234,10.29975c-9.03205,0.1218 -18.89026,1.03504 -24.64131,-2.58105c-17.21763,-10.82593 -15.19499,-50.82079 -3.30801,-57.33892z"></path><path stroke-width="2.5" fill="#000000" d="M313.24059,128.29625c1.70404,-2.11934 25.42976,-4.42958 30.51607,0c2.23786,1.94891 3.03933,15.2344 0.82032,17.06275c-3.63988,2.99908 -25.0891,3.86786 -28.0551,1.64065c-4.8278,-3.62527 -4.50016,-17.18748 -3.2813,-18.7034z"></path><path stroke-width="2.5" fill="#000000" d="M126.23545,135.75723c1.5953,-2.11935 23.80698,-4.42958 28.56872,0c2.09505,1.94891 2.84538,15.2344 0.76798,17.06275c-3.4076,2.99908 -23.48807,3.86786 -26.26479,1.64065c-4.51971,-3.62527 -4.21299,-17.18748 -3.07191,-18.70339z"></path><path stroke-width="6.5" fill="none" d="M200.19947,156.39139l7.42563,-75.44439"></path><path stroke-width="6.5" fill="none" d="M221.88231,150.45089l1.78215,-71.58306"></path><path stroke-width="6.5" fill="none" d="M241.78299,150.4509l-4.45538,-71.88009"></path><path stroke-width="6.5" fill="#c54447" d="M87.21096,141.89734c0,0 1.68718,-23.5027 11.62226,-30.27413c6.37559,-4.3454 18.3257,-7.68533 31.44313,-8.07458c14.10531,-0.41857 29.50412,-0.57646 31.63948,1.86232c9.70727,11.0866 8.55488,29.71896 8.55488,29.71896c0,0 -29.23725,-2.75546 -43.79677,-1.57205c-13.02172,1.05842 -39.46298,8.33947 -39.46298,8.33947z"></path><path stroke-width="6.5" fill="#c54447" d="M274.45296,130.52862c0,0 -3.86372,-18.40574 7.67963,-27.77343c7.37983,-5.9889 57.9422,-5.51438 63.88691,-2.20234c15.86425,8.83863 12.02023,28.09506 12.02023,28.09506c0,0 -10.64374,-2.9586 -38.24108,-3.34251c-23.56669,-0.32784 -45.34568,5.22321 -45.34568,5.22321z"></path></g></g></svg>