<svg version="1.1" xmlns="http://www.w3.org/2000/svg" xmlns:xlink="http://www.w3.org/1999/xlink" width="87.35768" height="21.626"><g transform="translate(-157.68001,-169.32458)"><g data-paper-data="{&quot;isPaintingLayer&quot;:true}" fill="none" fill-rule="nonzero" stroke="none" stroke-width="1" stroke-linecap="butt" stroke-linejoin="miter" stroke-miterlimit="10" stroke-dasharray="" stroke-dashoffset="0" font-family="none" font-weight="none" font-size="none" text-anchor="none" style="mix-blend-mode: normal"><path d="M245.0377,187.54681c0,1.87969 -3.6997,3.40378 -8.26049,3.40378h-70.83766c-4.56175,0 -8.25953,-1.52448 -8.25953,-3.40378v-14.81883c0,-1.87969 3.69778,-3.40339 8.25953,-3.40339h70.83669c4.56367,0 8.26049,1.52369 8.26049,3.40339v14.81883z" data-paper-data="{&quot;origPos&quot;:null}" fill="#70c5fa"/><path d="M241.71967,173.04664v13.97525c0,1.06768 -2.26611,1.93614 -5.05516,1.93614h-71.86c-2.78613,0 -5.05419,-0.86846 -5.05419,-1.93614v-13.97563c0,-1.06768 2.26806,-1.93613 5.05419,-1.93613h71.86c2.78905,0 5.05516,0.86883 5.05516,1.93651z" data-paper-data="{&quot;origPos&quot;:null}" fill="#29b4f0"/><text transform="translate(166.56813,183.79392) scale(0.30802,0.30802)" font-size="40" xml:space="preserve" data-paper-data="{&quot;origPos&quot;:null}" fill="#000000" fill-rule="nonzero" stroke="none" stroke-width="1" stroke-linecap="butt" stroke-linejoin="miter" stroke-miterlimit="10" stroke-dasharray="" stroke-dashoffset="0" font-family="Sans Serif" font-weight="normal" text-anchor="start" style="mix-blend-mode: normal"><tspan x="0" dy="0">Replay data</tspan></text></g></g></svg>