<svg version="1.1" xmlns="http://www.w3.org/2000/svg" xmlns:xlink="http://www.w3.org/1999/xlink" width="382.9691" height="333.04448" viewBox="0,0,382.9691,333.04448"><g transform="translate(-55.25364,-13.47775)"><g data-paper-data="{&quot;isPaintingLayer&quot;:true}" fill-rule="nonzero" stroke="#000000" stroke-width="1.5" stroke-linejoin="miter" stroke-miterlimit="10" stroke-dasharray="" stroke-dashoffset="0" style="mix-blend-mode: normal"><g><path d="M398.77838,104.26377c0,0 -45.3001,-8.32066 -95.75095,-5.44132c-64.72059,3.69374 -137.91769,24.13415 -134.82934,86.29423c1.0024,20.17556 13.73801,32.7929 30.09254,42.54606c37.41963,22.31551 102.34196,23.00558 150.02075,17.65336c33.70866,-3.784 58.72337,-12.86302 58.72337,-12.86302l30.27334,81.89555c0,0 -18.18087,11.41787 -48.81208,18.72858c-50.73541,12.10895 -131.70199,20.39905 -191.89429,1.6982c-66.80012,-20.7538 -113.29304,-71.01634 -120.85714,-152.78638c-3.19324,-34.51978 3.47834,-66.46042 24.99143,-92.28883c27.83668,-33.42044 79.3645,-57.20537 154.49158,-69.31801c99.95111,-16.11498 161.54525,4.5112 161.54525,4.5112z" fill="#fce57c" stroke-linecap="round"/><path d="M171.33864,162.43668c0,0 21.77584,-45.73783 74.13311,-55.74923c104.63361,-20.00733 139.08066,-2.58477 139.08066,-2.58477l-3.46946,21.50862c0,0 -59.80253,2.76756 -97.31531,9.35378c-31.25271,5.48712 -112.42901,27.47159 -112.42901,27.47159z" fill="#ffffff" stroke-linecap="round"/><path d="M229.05774,111.59811l-6.6235,36.49948" fill="none" stroke-linecap="round"/><path d="M282.04577,102.79913l-4.10026,31.93704" fill="none" stroke-linecap="round"/><path d="M342.60352,127.56663l3.15405,-27.04872" fill="none" stroke-linecap="round"/><path d="M382.97536,238.36863c0,0 -49.4008,17.64375 -142.21736,4.68882c-36.57188,-5.10454 -62.48045,-33.0411 -62.48045,-33.0411c0,0 57.41926,7.72462 84.56059,6.39737c37.99907,-1.85821 122.02967,-16.49991 122.02967,-16.49991l-1.89243,38.45481z" fill="#ffffff" stroke-linecap="round"/><path d="M233.94639,239.17021l4.92316,-22.16389" fill="none" stroke-linecap="round"/><path d="M293.37599,215.9163l-4.57151,28.34071" fill="none" stroke-linecap="round"/><path d="M349.28904,205.74271l1.05497,37.78762" fill="none" stroke-linecap="round"/><path d="M110.78842,149.6425c3.0789,6.91091 -0.03145,31.85639 -5.27482,34.15419c-3.28172,1.43815 -39.06887,-2.24019 -40.79192,-8.35687c-3.73927,-13.27414 -13.21884,-49.11697 -1.75827,-50.86795c7.1212,-1.088 47.18006,23.62303 47.82501,25.07063z" fill="#ffffff" stroke-linecap="round"/><path d="M114.26406,150.79619c8.35577,-12.3124 53.85876,-29.91753 61.80455,-26.85343c8.18646,3.15692 7.85075,9.08632 7.8875,15.71929c0.07437,13.41956 -8.1304,27.7541 -9.78919,29.80054c-6.18884,7.6352 -18.50874,10.34352 -29.78934,12.78959c-13.15394,2.85228 -25.23677,6.60606 -29.79657,4.56689c-9.5447,-4.26844 -5.27325,-28.71968 -0.31695,-36.02289z" fill="#ffffff" stroke-linecap="round"/><path d="M94.17205,159.89336c0,4.37538 -3.55843,7.92233 -7.94799,7.92233c-4.38957,0 -7.948,-3.54695 -7.948,-7.92233c0,-4.37538 3.55843,-7.92233 7.948,-7.92233c4.38957,0 7.94799,3.54695 7.94799,7.92233z" fill="#000000" stroke-linecap="butt"/><path d="M56.62057,138.63846c0,0 1.37378,-13.92278 7.33082,-12.98482c20.13603,3.17049 40.95847,20.4422 44.88257,23.65091c3.92409,3.2087 0.74805,14.06688 0.74805,14.06688l-52.96142,-24.73298z" fill="#ed7753" stroke-linecap="round"/><path d="M60.2112,158.34755l48.92199,15.14895c0,0 -1.77663,10.12451 -3.441,10.04777c-3.91107,-0.18032 -26.86244,2.75757 -38.59899,-7.41989c-4.5271,-3.92571 -6.88199,-17.77683 -6.88199,-17.77683z" fill="#ed7753" stroke-linecap="round"/><path d="M136.97459,165.27982c0,4.37538 -3.55844,7.92233 -7.94799,7.92233c-4.38955,0 -7.94799,-3.54695 -7.94799,-7.92233c0,-4.37538 3.55844,-7.92233 7.94799,-7.92233c4.38955,0 7.94799,3.54695 7.94799,7.92233z" fill="#000000" stroke-linecap="butt"/><path d="M108.90878,174.96502l73.4578,-24.11466c0,0 -4.24775,19.93927 -14.51202,24.88756c-4.15439,2.00279 -14.16169,3.81781 -24.70191,6.43403c-8.89093,2.20685 -17.85894,5.56346 -27.06265,4.23207c-5.93152,-0.85804 -7.1812,-11.439 -7.1812,-11.439z" fill="#ed7753" stroke-linecap="round"/><path d="M119.75539,145.20815c18.15533,-14.98341 49.77747,-21.36723 55.50477,-22.25968c5.7273,-0.89245 8.97652,12.21191 8.97652,12.21191l-74.95388,27.36086c0,0 0.55054,-9.12452 10.47259,-17.31309z" fill="#ed7753" stroke-linecap="round"/></g></g></g></svg>