<svg version="1.1" xmlns="http://www.w3.org/2000/svg" xmlns:xlink="http://www.w3.org/1999/xlink" width="68.66699" height="20.94187" viewBox="0,0,68.66699,20.94187"><g transform="translate(-201.71848,-168.34659)"><g data-paper-data="{&quot;isPaintingLayer&quot;:true}" fill-rule="nonzero" stroke="none" stroke-width="0.5" stroke-linecap="butt" stroke-linejoin="miter" stroke-miterlimit="10" stroke-dasharray="" stroke-dashoffset="0" style="mix-blend-mode: normal"><path d="M204.36297,170.04525c-0.01777,0.11945 -0.05288,0.20137 -0.05288,0.20137c-1.60085,3.69768 -1.12866,8.04645 -0.79905,11.92842c0.13487,1.58849 -0.53834,3.77533 1.39541,3.59758c6.37755,0.01271 10.44375,-10.45818 4.48898,-14.02516c-1.78383,-0.89051 -3.1465,-1.44819 -5.03245,-1.7022zM202.88175,169.77414c-0.20732,-0.09204 -0.52661,-0.31933 -0.42503,-0.82719c0.14709,-0.73543 0.88253,-0.58835 0.88253,-0.58835l0.64182,0.13201c2.36692,0.23696 4.03402,0.8901 6.15069,1.95001c7.02939,4.57701 2.81675,16.81758 -5.22531,16.83199c-3.08017,-0.16676 -2.53759,-1.64509 -2.74744,-4.11671c-0.37652,-4.43457 -1.03868,-9.12078 0.72276,-13.38175z" fill="#9600ff"/><path d="M222.67835,172.23584c-0.01114,0.01004 -0.01767,0.01527 -0.01767,0.01527c-0.93776,0.74752 -2.37937,1.07772 -3.21748,1.79532c-0.54412,0.46587 -1.08123,2.57411 -1.23391,3.21351c-0.74131,3.10456 -0.64472,7.5731 1.86016,9.66171c2.7244,1.81487 6.06859,0.86853 6.66811,-2.80489c0.59121,-3.62254 -0.11464,-7.10717 -2.45879,-9.89792c-0.36839,-0.7462 -0.93679,-1.42546 -1.60041,-1.98299zM220.70912,171.70236c-0.21874,-0.00469 -0.49135,-0.09627 -0.6419,-0.47264c-0.27854,-0.69636 0.41781,-0.9749 0.41781,-0.9749l0.99283,-0.33936c1.71093,0.60987 3.22951,1.8482 4.05625,3.48235c2.54014,3.07117 3.35406,7.00496 2.68407,10.95922c-0.80415,4.74601 -5.387,6.20784 -9.04618,3.76654c-3.37009,-2.80698 -3.3072,-8.56661 -1.97708,-12.55241c0.20804,-0.62341 0.67889,-2.12243 1.17476,-2.57237c0.60838,-0.55204 1.51507,-0.8838 2.33944,-1.29642z" fill="#9600ff"/><path d="M238.76358,171.48689c0.75,0 0.75,0.75 0.75,0.75l-0.00256,0.919c-0.57104,3.42622 0.26661,7.71849 -2.35997,10.46847c-0.60597,0.60508 -0.95431,0.99767 -1.66746,1.5097c-2.76066,1.98214 -4.12079,-0.04227 -5.49462,-2.20725c-2.0965,-3.3038 -1.16631,-7.1583 -1.5431,-10.90102c0,0 -0.07463,-0.74628 0.67165,-0.82091c0.74628,-0.07463 0.82091,0.67165 0.82091,0.67165c0.29733,2.99243 -0.60823,6.8401 0.77731,9.58775c1.5675,3.10848 2.83851,3.63955 5.37465,1.0994c2.32911,-2.1654 1.45148,-6.68595 1.92574,-9.53153l-0.00256,-0.79528c0,0 0,-0.75 0.75,-0.75z" fill="#9600ff"/><path d="M242.99585,170.13061c-0.22887,2.3653 -0.30759,4.74976 -0.3327,7.1355l1.06453,-0.29033l0.02253,0.08261c1.41874,-0.68979 3.02171,-1.57869 3.32503,-2.40502c1.31721,-3.5884 -1.04451,-4.48973 -4.0794,-4.52276zM242.65644,182.80832c0,0.90476 0,1.80952 0,2.71429c0,0.45789 -0.57405,1.11496 -0.18774,1.36079c0.33684,0.21435 2.00926,-0.3115 2.44539,-0.38422c2.26096,-0.43275 5.86233,-1.91692 4.47271,-5.05359c-0.74221,-1.67531 -4.81964,-1.79142 -6.32368,-2.224l-0.05347,-0.04825l-0.01004,0.02009l-0.34667,-0.17334c-0.00245,1.2645 0.00351,2.52814 0.00351,3.78823zM242.80272,168.62987c1.78778,0.00669 4.93702,0.14008 5.79206,2.0235c1.2385,2.72805 -0.86441,6.68721 -3.66499,7.46016c2.12236,0.39189 4.88428,0.76047 5.78201,2.62894c1.99683,4.15606 -2.30529,6.56481 -5.52729,7.23212c-1.03703,0.17277 -2.94102,0.73293 -3.84033,-0.0985c-0.65297,-0.60369 -0.18774,-4.28315 -0.18774,-5.06778c0,-4.33772 -0.05906,-8.71056 0.36743,-13.02518c-0.15303,-0.13149 -0.27922,-0.34728 -0.21001,-0.69334c0.12894,-0.64471 0.71002,-0.61121 0.85143,-0.59313c0.07434,-0.01289 0.15812,-0.01569 0.25254,-0.00519c0.16603,0.01845 0.29097,0.06977 0.38488,0.1384z" fill="#9600ff"/><path d="M260.08501,185.95117c0,0.75 -0.75,0.75 -0.75,0.75l-0.01956,-0.0102c-1.90051,0.31675 -3.582,0.58688 -5.52915,0.57195c-0.40287,-0.1303 -1.8272,-0.52772 -2.07234,-0.89127c-0.54733,-0.81172 -0.18837,-2.83464 -0.26925,-3.78718c-0.36219,-4.2657 -0.14541,-8.4969 -0.14541,-12.77615c0,0 0,-0.75 0.75,-0.75c0.75,0 0.75,0.75 0.75,0.75c0,4.23959 -0.20568,8.42644 0.1403,12.65243c0.14412,1.76037 -0.53896,2.75726 1.08698,3.32154c1.77177,-0.01678 3.30506,-0.28137 5.04228,-0.57091l0.26616,-0.0102c0,0 0.75,0 0.75,0.75z" fill="#9600ff"/><path d="M270.29155,171.33005c0.33541,0.67082 -0.33541,1.00623 -0.33541,1.00623l-0.49783,0.21183c-2.08654,0.34763 -4.11558,0.63939 -6.21293,0.98789c-0.12346,1.43192 -0.3223,2.84229 -0.52352,4.249c2.01462,-0.38642 4.43412,-0.15583 6.36423,-0.43343l0.24892,-0.00754c0,0 0.75,0 0.75,0.75c0,0.75 -0.75,0.75 -0.75,0.75l-0.03679,-0.00754c-1.92489,0.27297 -4.86456,-0.09475 -6.79629,0.50425c-0.17547,1.27839 -0.33068,2.55921 -0.41079,3.85587c-0.02398,0.38816 -0.46938,3.14831 -0.39226,3.2368c0.37108,0.42576 1.12208,0.12976 1.68274,0.19777c1.66936,-0.00298 3.56438,0.31245 5.09496,-0.37293l0.72276,-0.28916c0,0 0.69636,-0.27854 0.9749,0.41781c0.27854,0.69636 -0.41781,0.9749 -0.41781,0.9749l-0.70582,0.28227c-1.81061,0.74952 -3.81639,0.48733 -5.76219,0.48421c-0.8622,-0.11029 -2.29232,-0.15559 -2.88869,-0.94508c-0.41172,-0.54504 0.14928,-3.36503 0.19328,-4.06124c0.07656,-1.21156 0.21833,-2.40781 0.38042,-3.60062c-0.06057,-0.05937 -0.11709,-0.13621 -0.16637,-0.23477c-0.33541,-0.67082 0.33541,-1.00623 0.33541,-1.00623c0.00184,-0.00088 0.00369,-0.00176 0.00554,-0.00264c0.35142,-2.45241 0.72273,-4.90775 0.72273,-7.46939c0,0 0,-0.75 0.75,-0.75c0.75,0 0.75,0.75 0.75,0.75c0,0.39929 -0.00899,0.79614 -0.0255,1.19093c1.97719,-0.32404 3.89196,-0.60152 5.86649,-0.93072l0.0736,-0.07388c0,0 0.67082,-0.33541 1.00623,0.33541z" fill="#9600ff"/></g></g></svg>