<svg version="1.1" xmlns="http://www.w3.org/2000/svg" xmlns:xlink="http://www.w3.org/1999/xlink" width="48.52079" height="23.07256" viewBox="0,0,48.52079,23.07256"><g transform="translate(-219.65865,-166.68667)"><g data-paper-data="{&quot;isPaintingLayer&quot;:true}" fill-rule="nonzero" stroke="none" stroke-width="0.5" stroke-linecap="butt" stroke-linejoin="miter" stroke-miterlimit="10" stroke-dasharray="" stroke-dashoffset="0" style="mix-blend-mode: normal"><g fill="#00a9ff"><path d="M243.44458,180.92645c0.60499,0 0.8403,0.36969 0.93182,0.65726c1.26059,1.62122 1.30428,5.19055 -1.35536,5.76341c-0.564,0.12148 -1.10212,-0.34166 -1.65318,-0.51249c-1.40718,-1.08126 -1.88169,-2.06753 -2.74594,-3.38858c0.22846,1.63184 0.52579,3.23717 0.79997,4.76623c0.16239,0.2481 0.36529,0.74196 -0.12857,1.23581c-0.70009,0.70009 -1.40017,0 -1.40017,0l-0.37393,-0.62703c-0.95851,-5.48667 -2.15643,-11.67376 -0.15004,-17.05387c0,0 0.34764,-0.92703 1.27467,-0.57939c0.76618,0.28732 0.66166,0.97041 0.60232,1.19881c3.20595,-0.4999 5.83362,1.51241 4.43897,5.10713c-1.02585,2.64415 -3.47167,1.79111 -5.42207,2.26021c0.00561,0.12538 0.01203,0.25082 0.0192,0.37631c0.21736,0.18472 0.54254,0.40286 0.68183,0.56604c0.35726,0.41852 0.74263,0.81714 1.05177,1.27236c0.86783,1.2779 1.08286,2.1557 2.33721,3.14834c0.73106,0.62509 1.38696,-1.87446 0.49746,-2.3094l-0.39603,-0.89106c0,0 0,-0.99007 0.99007,-0.99007zM241.54206,177.27969c0.59164,-0.33752 0.42046,-2.58321 0.16068,-3.03549c-0.23415,-0.40766 -1.99002,0.06049 -2.32129,0.12856c0,0 -0.37241,0.07448 -0.70206,-0.09947c-0.26785,1.16459 -0.39985,2.36689 -0.43465,3.586c1.18224,-0.18694 2.65128,-0.21105 3.29732,-0.5796z"/><path d="M250.83414,175.43267c-0.34764,-0.92703 0.57939,-1.27467 0.57939,-1.27467l0.14962,0.63001c0.03851,-2.09863 -2.04945,-1.33322 -3.88435,-1.191c0,0 -0.02737,0.00211 -0.07336,0.00106c0.30802,1.37698 0.35026,2.83506 0.34312,4.3052c0.80784,-0.03756 1.60852,-0.04604 2.4265,-0.04604l0.43128,-0.08554c0,0 0.9766,-0.16277 1.13937,0.81383c0.16277,0.9766 -0.81383,1.13937 -0.81383,1.13937l-0.75681,0.11248c-0.82547,0 -1.63102,0.00757 -2.4464,0.04871c-0.00596,1.11541 0.01574,2.21987 0.1602,3.28303c0.05111,0.37613 -0.05989,2.70423 0.0038,2.79977c0.25782,0.38674 0.92656,-0.09591 1.39134,-0.09208c2.25913,0.0186 1.98014,-1.0252 1.98014,-2.8712v-0.39603c0,0 0,-0.99007 0.99007,-0.99007c0.99007,0 0.99007,0.99007 0.99007,0.99007v0.39603c0,0.23372 0.02032,2.6184 -0.06326,2.82341c-0.80205,1.96735 -5.30704,3.12069 -6.86199,1.34181c-0.47286,-0.54095 -0.28626,-2.96045 -0.39223,-3.73469c-0.44751,-3.26972 0.4813,-7.33568 -0.73511,-10.37184c0,0 -0.35541,-0.92408 0.56866,-1.27949c0.42526,-0.16356 0.73009,-0.05615 0.93527,0.10748c0.26877,-0.24168 0.6313,-0.26956 0.6313,-0.26956c2.95926,-0.226 5.96725,-0.63405 6.01636,3.16531l-1.43449,1.22405c0,0 -0.92703,0.34764 -1.27467,-0.57939z"/><path d="M263.74101,177.85723c-0.99007,0 -0.99007,-0.99007 -0.99007,-0.99007l0.00123,-1.03939c0.05648,-0.56505 0.15517,-2.20501 0.53484,-2.57596c1.72721,-1.68752 3.32139,-0.36629 4.21936,1.11109c1.10777,2.78375 0.90164,4.6865 -1.01854,6.99198c-0.86033,1.03297 -1.25677,2.22016 -3.03265,1.80658c-1.19841,-0.2791 -1.87479,-2.36709 -2.30048,-3.31452c-0.78077,-1.7377 -1.66503,-3.26434 -2.8695,-4.59584c0.43793,3.27947 1.0407,6.55098 0.49198,9.89741l-0.28907,0.67603c0,0 -0.44277,0.88555 -1.32832,0.44277c-0.88555,-0.44277 -0.44277,-1.32832 -0.44277,-1.32832l0.10696,-0.11602c0.68616,-4.04202 -0.45313,-8.05633 -0.80211,-12.03188c0,0 -0.08222,-0.98665 0.90443,-1.06887c0.48597,-0.0405 0.75252,0.17831 0.89791,0.41081c2.13271,1.66354 3.36867,3.48497 4.61435,5.85634c0.36297,0.69098 0.9129,2.86503 1.58826,3.27626c0.42368,0.25798 0.62241,-0.77261 0.92763,-1.16363c1.35465,-1.73544 1.62824,-2.742 0.76359,-4.88886c-0.71802,-1.61227 -0.90108,-0.15749 -0.9882,0.71328l0.00123,0.94075c0,0 0,0.99007 -0.99007,0.99007z"/></g><path d="M223.02256,188.6922c-0.79802,-0.79802 -0.15505,-1.59604 -0.02259,-1.74355c1.53506,-3.50038 2.22618,-7.36097 3.9311,-10.84181c0.63177,-1.28984 1.26279,-2.59744 2.11263,-3.75527c0.63413,-0.86395 2.82645,-1.64769 2.09937,-2.43502c-0.34781,-0.37663 -1.00801,0.25287 -1.52027,0.23271c-2.46145,-0.09688 -4.72933,-0.69183 -7.16202,-0.71433c0.09389,0.83189 0.11502,1.67616 0.11677,2.5098l-0.30802,1.42048c0,0 -0.27116,1.22023 -1.4914,0.94907c-1.22023,-0.27116 -0.94907,-1.4914 -0.94907,-1.4914l0.26341,-1.15095c0.00309,-1.12778 -0.04834,-2.28468 -0.38332,-3.36156c0,0 -0.35918,-1.19728 0.8381,-1.55647c0.52079,-0.15624 0.88301,-0.01798 1.12607,0.18813c2.77203,-0.14897 5.60253,0.1319 8.31272,0.73375c1.09741,0.2437 2.70505,-0.09886 3.2552,0.88147c1.48082,2.63872 -1.12408,3.83635 -2.18634,5.27926c-3.12408,4.24355 -3.80303,9.64976 -5.86334,14.33663l-0.40124,0.51907c0,0 -0.88388,0.88388 -1.76777,0z" fill="#00a9ff"/></g></g></svg>