<svg version="1.1" xmlns="http://www.w3.org/2000/svg" xmlns:xlink="http://www.w3.org/1999/xlink" width="330.46849" height="339.11857" viewBox="0,0,330.46849,339.11857"><g transform="translate(-74.76574,-10.42092)"><g data-paper-data="{&quot;isPaintingLayer&quot;:true}" fill-rule="nonzero" stroke="#000000" stroke-width="1.5" stroke-linecap="round" stroke-linejoin="miter" stroke-miterlimit="10" stroke-dasharray="" stroke-dashoffset="0" style="mix-blend-mode: normal"><g><path d="M139.03013,243.54983c-4.34886,-9.6963 -13.60137,-80.85319 -13.60137,-80.85319c0,0 -49.7411,-104.91125 -49.91142,-107.38229c-0.34038,-4.93833 53.91748,-27.5841 111.51691,-38.6579c25.86328,-4.97236 49.46137,-9.61227 73.42882,0.63122c88.0786,37.64405 26.74089,115.16519 26.74089,115.16519c0,0 81.0304,-11.8343 110.16314,48.69861c19.39306,40.29551 -3.5241,81.87566 -36.48981,109.68358c-46.06517,38.85783 -113.55565,56.65375 -128.56719,57.94256c-18.49656,-7.01888 -67.97076,-115.27373 -67.97076,-115.27373c0,0 -22.22078,16.93201 -25.30922,10.04596z" fill="#a5c0fe"/><path d="M164.6469,234.60898l128.71911,-54.36495l5.82931,19.59683l-125.89514,52.00376z" fill="#ffffff"/><path d="M245.30473,201.9561l4.9958,14.29598" fill="#000000"/><path d="M272.92909,191.09415l5.75044,14.62466" fill="none"/><path d="M177.87925,150.76332c7.37867,16.4833 -16.52326,65.12341 -26.14726,67.087c-0.60028,0.12248 -40.18818,-12.60112 -41.07976,-17.89198c-2.60614,-15.46553 4.68472,-58.74098 22.66374,-63.57733c7.23491,-1.94619 41.59784,7.7578 44.56327,14.38231z" fill="#ffffff"/><path d="M215.16169,239.89122c-9.17517,6.19842 -57.75057,-13.1009 -60.44636,-17.66955c-2.54651,-4.31567 1.90648,-41.52122 13.94719,-50.61748c18.90518,-14.28208 58.85066,12.305 59.12359,14.27457c1.10414,7.96795 1.18159,44.68561 -12.62442,54.01246z" fill="#ffffff"/><path d="M118.61126,172.21721c0,0 12.20357,-1.56605 18.34149,-0.63439c6.46176,0.98082 19.50755,6.37939 19.50755,6.37939c0,0 -6.32965,18.50369 -9.56307,18.08176c-11.78666,-1.53805 -24.6447,-3.71523 -29.45162,-7.76435c-4.80692,-4.04911 1.16564,-16.0624 1.16564,-16.0624z" fill="#000000"/><path d="M208.63695,201.19733c0,0 -4.66632,17.692 -10.94703,17.92522c-6.28071,0.23322 -17.75529,-5.96385 -27.99206,-12.00533c-2.80824,-1.65735 3.59032,-20.13732 3.59032,-20.13732c0,0 14.4413,2.91032 20.13807,6.11396c5.41126,3.04308 15.2107,8.10347 15.2107,8.10347z" data-paper-data="{&quot;index&quot;:null}" fill="#000000"/><path d="M177.40673,151.04589c3.50912,17.03212 -3.21611,32.39108 -3.21611,32.39108c0,0 -18.35811,-7.89751 -27.565,-9.98659c-10.65812,-2.41837 -32.66953,-3.68089 -32.66953,-3.68089c0,0 1.81735,-12.11237 7.51665,-21.94822c2.79521,-4.82397 5.45452,-9.56624 11.37071,-11.15769c7.23491,-1.94619 41.59784,7.7578 44.56327,14.38231z" fill="#6d85fd"/><path d="M188.38312,168.65064c27.07892,6.46477 30.21639,11.35606 37.55261,17.74303c3.01204,2.62231 -0.82552,25.9043 -0.82552,25.9043c0,0 -11.42413,-11.92915 -21.2183,-17.31247c-10.72369,-5.89422 -40.58843,-16.65931 -40.58843,-16.65931c0,0 4.44625,-14.60153 25.07964,-9.67555z" fill="#6d85fd"/></g></g></g></svg>