<svg version="1.1" xmlns="http://www.w3.org/2000/svg" xmlns:xlink="http://www.w3.org/1999/xlink" width="53.33334" height="53" viewBox="0,0,53.33334,53"><g transform="translate(-213.39085,-152.6097)"><g data-paper-data="{&quot;isPaintingLayer&quot;:true}" fill-rule="nonzero" stroke-width="0" stroke-linecap="butt" stroke-linejoin="miter" stroke-miterlimit="10" stroke-dasharray="" stroke-dashoffset="0" style="mix-blend-mode: normal"><g><path d="M229.05752,163.52637c0,-6.02911 4.88756,-10.91667 10.91667,-10.91667c6.02911,0 10.91667,4.88756 10.91667,10.91667c0,6.02911 -4.88756,10.91667 -10.91667,10.91667c-6.02911,0 -10.91667,-4.88756 -10.91667,-10.91667z" fill="#ff00e6" stroke="#45993d"/><path d="M218.55751,194.19304c0,-6.02911 4.88755,-10.91666 10.91666,-10.91666c6.02911,0 10.91667,4.88755 10.91667,10.91666c0,6.02911 -4.88756,10.91667 -10.91667,10.91667c-6.02911,0 -10.91666,-4.88756 -10.91666,-10.91667z" fill="#ff00e6" stroke="#45993d"/><path d="M240.05751,194.69304c0,-6.02911 4.88755,-10.91666 10.91666,-10.91666c6.02911,0 10.91667,4.88755 10.91667,10.91666c0,6.02911 -4.88756,10.91667 -10.91667,10.91667c-6.02911,0 -10.91666,-4.88756 -10.91666,-10.91667z" fill="#ff00e6" stroke="#45993d"/><path d="M213.39085,173.8597c0,-6.02911 4.88755,-10.91666 10.91666,-10.91666c6.02911,0 10.91667,4.88755 10.91667,10.91666c0,6.02911 -4.88756,10.91667 -10.91667,10.91667c-6.02911,0 -10.91666,-4.88756 -10.91666,-10.91667z" fill="#ff00e6" stroke="#45993d"/><path d="M244.89085,174.69304c0,-6.02911 4.88755,-10.91666 10.91666,-10.91666c6.02911,0 10.91667,4.88755 10.91667,10.91666c0,6.02911 -4.88756,10.91667 -10.91667,10.91667c-6.02911,0 -10.91666,-4.88756 -10.91666,-10.91667z" fill="#ff00e6" stroke="#45993d"/><path d="M228.41667,180c0,-6.3973 5.18603,-11.58333 11.58333,-11.58333c6.3973,0 11.58333,5.18603 11.58333,11.58333c0,6.3973 -5.18603,11.58333 -11.58333,11.58333c-6.3973,0 -11.58333,-5.18603 -11.58333,-11.58333z" fill="#faff00" stroke="#45993d"/></g></g></g></svg>