<svg version="1.1" xmlns="http://www.w3.org/2000/svg" xmlns:xlink="http://www.w3.org/1999/xlink" width="354.0738" height="119.24155" viewBox="0,0,354.0738,119.24155"><g transform="translate(-62.9631,-120.37923)"><g data-paper-data="{&quot;isPaintingLayer&quot;:true}" fill="#0029ff" fill-rule="nonzero" stroke="none" stroke-width="0.5" stroke-linecap="butt" stroke-linejoin="miter" stroke-miterlimit="10" stroke-dasharray="" stroke-dashoffset="0" style="mix-blend-mode: normal"><path d="M86.28107,145.24616c-1.51782,-0.22489 -3.06107,-0.43757 -4.63799,-0.65416c-0.3618,-0.04969 -0.76727,0.04741 -1.1651,0.13941c0.2399,2.52528 -1.1572,3.55194 -1.39235,6.29134c-0.16433,1.91431 0.0513,3.8424 0.06061,5.76374c0.02879,5.94512 -0.45753,11.90057 -0.10446,17.83526c0.21642,3.6378 2.76536,8.50084 4.02729,11.79571c0.52896,1.3811 0.69995,2.92978 1.49325,4.17795c0.70574,1.1104 2.03329,1.69237 2.87858,2.70061c0.9916,1.18278 1.80658,2.50767 2.59854,3.83245c0.43962,0.73539 0.32343,1.93814 1.08539,2.32993c1.31536,0.67634 2.93961,0.33027 4.4094,0.49541c3.41187,2.5766 5.12158,1.63493 9.2832,1.63493c2.06698,0 6.3737,0.83803 8.26962,0.21641c6.83812,-2.24207 10.8048,-7.6536 13.40262,-14.06458c1.42252,-3.51053 0.62288,-8.13316 0.62288,-11.82301c0,-3.13249 0.91573,-6.34154 0.21641,-9.39498c-0.42377,-1.85031 -1.85635,-3.31218 -2.73844,-4.99299c-2.26595,-4.31776 -3.41095,-6.25561 -6.89604,-9.7407c-2.13256,-1.55546 -4.43469,-2.03391 -6.81874,-2.28718c-3.21218,1.60598 -6.81195,0.16607 -6.81195,0.16607c-1.39699,-0.56914 -2.78645,-1.06596 -4.17579,-1.50493c-3.11827,-0.49553 -6.23011,-1.03795 -9.35036,-1.51905l-4.0333,-1.31398c0,0 -0.08087,-0.02696 -0.22325,-0.08364zM101.63497,131.86989c9.30277,1.09436 18.04101,2.04068 26.3168,7.40709c6.22172,6.22172 13.06167,14.63491 15.12336,23.52842c0.73309,3.1623 0.16284,6.49036 0.21641,9.73607c0.11375,6.89228 0.73292,14.22621 -1.62784,20.81232c-4.06834,11.35 -12.95066,20.98107 -24.85948,24.19752c-3.3737,0.9112 -8.42751,0.21641 -11.98679,0.21641c-5.97375,0 -10.29454,0.29533 -15.47463,-2.86649c-2.28139,-0.5851 -4.89083,-0.43941 -6.84415,-1.75531c-5.74742,-3.87187 -4.34063,-5.69574 -7.56964,-9.59261c-1.19213,-1.4387 -2.89077,-2.46245 -3.87356,-4.05152c-3.2399,-5.23861 -4.99303,-12.06106 -6.64022,-17.94645c-0.40834,-1.45897 -1.22214,-2.83183 -1.34351,-4.342c-0.08787,-1.09343 -0.12113,-16.43966 -0.10446,-20.42684c0.03797,-9.07918 1.05455,-19.87554 7.98318,-26.90537c1.06825,-1.08385 9.38741,-1.75602 12.02709,-1.41297c6.56749,0.8535 12.63686,1.78327 18.65744,3.40175z"/><path d="M246.82428,162.41326c0,8.08949 -8.08949,8.08949 -8.08949,8.08949h-3.37607c-4.08024,0 -8.13811,-0.18006 -12.16546,-0.05306c-0.00095,0.32214 -0.00145,0.64428 -0.00145,0.96641c0,7.12725 0,14.25451 0,21.38176c0,2.25071 0.42006,4.54097 0,6.75214c-0.58476,3.07819 -1.57957,6.06413 -2.36936,9.09621l-10.22156,2.36936c0,0 -8.08949,0 -8.08949,-8.08949c0,-4.34977 2.3389,-6.36065 4.50142,-7.29026c0,-3.19669 0,-6.39339 0,-9.59008c0,-4.10389 0.11125,-8.2637 0.22979,-12.44649c-8.18824,3.02894 -16.1846,7.22299 -24.46821,9.99265c0,0 -4.85122,1.61707 -8.12524,-1.57719c-0.4885,2.84195 -1.75052,5.53618 -2.15899,8.3955c-0.55582,3.89089 -0.31748,7.94335 -1.47987,11.69793l-1.56426,3.31032c0,0 -3.61773,7.23546 -10.85319,3.61773c-7.23546,-3.61773 -3.61773,-10.85319 -3.61773,-10.85319l0.68645,-1.1911c1.03013,-2.67273 0.36574,-5.7229 0.77084,-8.55848c0.43747,-3.06222 1.82841,-5.93851 2.25071,-9.00285c0.58791,-4.26599 -0.33471,-8.62191 -0.05057,-12.91884c0.45047,-6.81204 1.73038,-13.54947 2.2563,-20.3561c0.20827,-2.69548 -0.34442,-5.46008 0.20077,-8.10806c0.88409,-4.29402 4.3876,-10.19984 6.769,-13.88222c0,0 4.48724,-6.73086 11.2181,-2.24362c6.73086,4.48724 2.24362,11.2181 2.24362,11.2181c-1.43166,2.03975 -4.02921,6.23572 -4.48455,8.6249c-0.33698,1.76816 0.31723,3.6 0.20077,5.39621c-0.20437,3.15196 -0.81077,6.26524 -1.16042,9.40441c-0.47008,4.22041 -0.47831,8.56843 -0.52151,12.89911c1.21825,-0.85954 2.30351,-1.22129 2.30351,-1.22129c7.70741,-2.56014 15.45157,-5.6217 22.95708,-8.74362c1.7227,-0.71656 3.24223,-1.9195 5.02837,-2.45885c0.62366,-0.18832 1.24419,-0.36375 1.86202,-0.52717c-0.08034,-6.30464 -0.46454,-12.56002 -1.50809,-18.65356c0,0 -1.3299,-7.97943 6.64952,-9.30933c7.97943,-1.3299 9.30933,6.64952 9.30933,6.64952c1.03706,6.36632 1.32063,12.77453 1.35875,19.20147c3.93174,-0.1326 7.9068,-0.07787 12.04359,-0.07787h3.37607c0,0 8.08949,0 8.08949,8.08949z"/><path d="M344.75378,132.49997c0,-8.08949 8.08949,-8.08949 8.08949,-8.08949h6.75214c8.7269,0 16.16343,-0.55759 24.47748,2.86649c9.4876,3.9074 13.53714,12.77242 19.89587,20.17917c4.53035,5.27703 9.14864,10.39779 11.60398,17.12326c2.46849,6.76151 1.23511,11.24609 0.47491,18.10347c-0.86252,7.78033 -1.1815,13.91285 -8.94562,18.94715c-1.97059,1.27774 -4.66253,0.56935 -6.9938,0.85403c-5.23932,0 -10.5202,0.20824 -15.75499,0c-2.35538,-0.0937 -4.85918,0.43044 -7.05954,-0.41512c-7.4771,-2.87333 -7.92442,-6.67523 -13.14182,-11.93779c-1.61389,-1.62785 -4.02192,-2.45209 -5.35046,-4.32012c-1.73639,-2.44149 -2.65674,-5.39358 -3.58407,-8.24244c-1.93415,-5.9419 -1.46072,-11.94373 -1.46072,-18.06006c0,-6.43924 -0.03295,-12.32941 1.34176,-18.73892c0.0128,-0.0597 0.026,-0.11975 0.03957,-0.18013h-2.29469c0,0 -8.08949,0 -8.08949,-8.08949zM378.26789,141.82994c-2.02174,1.01024 -4.04285,1.01024 -4.04285,1.01024c-1.07855,-0.02738 -2.14035,-0.41232 -3.21755,-0.35166c-0.66723,0.03757 -0.04766,1.33996 -0.16292,1.99824c-0.38273,2.18593 -0.75663,4.37991 -0.92931,6.59236c-0.43435,5.565 -0.57689,12.23604 -0.01902,17.76048c0.02444,0.24203 1.17943,6.45424 1.74671,7.12994c0.94048,1.12023 2.61282,1.40309 3.65239,2.43202c2.59326,2.56671 3.65546,7.15786 7.1146,8.31862c1.68611,0.5658 3.54086,-0.41512 5.31937,-0.41512c4.0378,0 8.0756,0 12.1134,0c-0.12917,-0.94638 -0.04962,-3.78314 0.08108,-4.95665c0.72077,-6.47124 2.12699,-8.77241 -1.18547,-14.4035c-2.97773,-5.06207 -7.05742,-9.12215 -10.65187,-13.73578c-2.57128,-3.30034 -4.65104,-7.04507 -7.69354,-9.91682c-0.62399,-0.58897 -1.33954,-1.07043 -2.12503,-1.46238z"/><path d="M331.75023,148.28448c7.84796,-1.96199 9.80995,5.88597 9.80995,5.88597l1.19739,4.81615c0.82693,5.04543 0.55557,10.22099 1.23424,15.28848c0.4106,3.06594 1.87706,5.93219 2.25071,9.00285c0.01714,0.14082 0.0915,13.26438 0.06061,15.61803c-0.09275,7.06698 1.91203,19.56008 -9.83754,21.57813c-4.01913,0.69031 -6.87755,-4.495 -9.75005,-7.38959c-0.31243,-0.31483 -4.00748,-8.18307 -4.50142,-9.00285c-2.84228,-4.71717 -5.53334,-9.53607 -8.65084,-14.07605c-4.12097,-6.00132 -7.84816,-8.13072 -12.88731,-13.84848c-1.22658,-1.39176 -2.65369,-3.51547 -4.25017,-5.78811c-0.05295,2.64289 0.03519,5.52759 0.32668,9.0683c0.32353,3.9299 1.69326,7.71197 2.21252,11.62083c1.61574,12.16298 3.05225,24.39871 4.55897,36.59441l0.01563,3.87873c0,0 0,8.08949 -8.08949,8.08949c-8.08949,0 -8.08949,-8.08949 -8.08949,-8.08949l0.01563,-2.87341c-1.49602,-11.80886 -2.88422,-23.64649 -4.44387,-35.42837c-0.54682,-4.13075 -1.96523,-8.13481 -2.28891,-12.289c-0.93221,-11.96435 -0.13988,-16.52853 1.01523,-26.83012c-0.22435,-1.40538 -0.02539,-3.06263 0.92917,-4.97175c3.61773,-7.23546 10.85319,-3.61773 10.85319,-3.61773c2.02234,1.09182 4.31402,1.78921 6.06701,3.27545c5.39015,4.56993 8.54457,11.27466 13.2233,16.57065c4.613,5.22158 10.1369,9.69504 14.12124,15.41077c1.32052,1.89435 2.35046,3.97134 3.45541,6.00277c-0.0195,-0.50989 -0.058,-1.01865 -0.12327,-1.52581c-0.39485,-3.06801 -1.8436,-5.93644 -2.25071,-9.00285c-0.61452,-4.62861 -0.23225,-9.36787 -1.01648,-13.97077l-1.05331,-4.18669c0,0 -1.96199,-7.84796 5.88597,-9.80995z"/></g></g></svg>