<svg version="1.1" xmlns="http://www.w3.org/2000/svg" xmlns:xlink="http://www.w3.org/1999/xlink" width="52.24035" height="23.36998" viewBox="0,0,52.24035,23.36998"><g transform="translate(-215.93909,-167.84601)"><g data-paper-data="{&quot;isPaintingLayer&quot;:true}" fill="#00a9ff" fill-rule="nonzero" stroke="none" stroke-width="0.5" stroke-linecap="butt" stroke-linejoin="miter" stroke-miterlimit="10" stroke-dasharray="" stroke-dashoffset="0" style="mix-blend-mode: normal"><g><path d="M243.44458,180.92645c0.60499,0 0.8403,0.36969 0.93182,0.65726c1.26059,1.62122 1.30428,5.19055 -1.35536,5.76341c-0.564,0.12148 -1.10212,-0.34166 -1.65318,-0.51249c-1.40718,-1.08126 -1.88169,-2.06753 -2.74594,-3.38858c0.22846,1.63184 0.52579,3.23717 0.79997,4.76623c0.16239,0.2481 0.36529,0.74196 -0.12857,1.23581c-0.70009,0.70009 -1.40017,0 -1.40017,0l-0.37393,-0.62703c-0.95851,-5.48667 -2.15643,-11.67376 -0.15004,-17.05387c0,0 0.34764,-0.92703 1.27467,-0.57939c0.76618,0.28732 0.66166,0.97041 0.60232,1.19881c3.20595,-0.4999 5.83362,1.51241 4.43897,5.10713c-1.02585,2.64415 -3.47167,1.79111 -5.42207,2.26021c0.00561,0.12538 0.01203,0.25082 0.0192,0.37631c0.21736,0.18472 0.54254,0.40286 0.68183,0.56604c0.35726,0.41852 0.74263,0.81714 1.05177,1.27236c0.86783,1.2779 1.08286,2.1557 2.33721,3.14834c0.73106,0.62509 1.38696,-1.87446 0.49746,-2.3094l-0.39603,-0.89106c0,0 0,-0.99007 0.99007,-0.99007zM241.54206,177.27969c0.59164,-0.33752 0.42046,-2.58321 0.16068,-3.03549c-0.23415,-0.40766 -1.99002,0.06049 -2.32129,0.12856c0,0 -0.37241,0.07448 -0.70206,-0.09947c-0.26785,1.16459 -0.39985,2.36689 -0.43465,3.586c1.18224,-0.18694 2.65128,-0.21105 3.29732,-0.5796z"/><path d="M250.83414,175.43267c-0.34764,-0.92703 0.57939,-1.27467 0.57939,-1.27467l0.14962,0.63001c0.03851,-2.09863 -2.04945,-1.33322 -3.88435,-1.191c0,0 -0.02737,0.00211 -0.07336,0.00106c0.30802,1.37698 0.35026,2.83506 0.34312,4.3052c0.80784,-0.03756 1.60852,-0.04604 2.4265,-0.04604l0.43128,-0.08554c0,0 0.9766,-0.16277 1.13937,0.81383c0.16277,0.9766 -0.81383,1.13937 -0.81383,1.13937l-0.75681,0.11248c-0.82547,0 -1.63102,0.00757 -2.4464,0.04871c-0.00596,1.11541 0.01574,2.21987 0.1602,3.28303c0.05111,0.37613 -0.05989,2.70423 0.0038,2.79977c0.25782,0.38674 0.92656,-0.09591 1.39134,-0.09208c2.25913,0.0186 1.98014,-1.0252 1.98014,-2.8712v-0.39603c0,0 0,-0.99007 0.99007,-0.99007c0.99007,0 0.99007,0.99007 0.99007,0.99007v0.39603c0,0.23372 0.02032,2.6184 -0.06326,2.82341c-0.80205,1.96735 -5.30704,3.12069 -6.86199,1.34181c-0.47286,-0.54095 -0.28626,-2.96045 -0.39223,-3.73469c-0.44751,-3.26972 0.4813,-7.33568 -0.73511,-10.37184c0,0 -0.35541,-0.92408 0.56866,-1.27949c0.42526,-0.16356 0.73009,-0.05615 0.93527,0.10748c0.26877,-0.24168 0.6313,-0.26956 0.6313,-0.26956c2.95926,-0.226 5.96725,-0.63405 6.01636,3.16531l-1.43449,1.22405c0,0 -0.92703,0.34764 -1.27467,-0.57939z"/><path d="M263.74101,177.85723c-0.99007,0 -0.99007,-0.99007 -0.99007,-0.99007l0.00123,-1.03939c0.05648,-0.56505 0.15517,-2.20501 0.53484,-2.57596c1.72721,-1.68752 3.32139,-0.36629 4.21936,1.11109c1.10777,2.78375 0.90164,4.6865 -1.01854,6.99198c-0.86033,1.03297 -1.25677,2.22016 -3.03265,1.80658c-1.19841,-0.2791 -1.87479,-2.36709 -2.30048,-3.31452c-0.78077,-1.7377 -1.66503,-3.26434 -2.8695,-4.59584c0.43793,3.27947 1.0407,6.55098 0.49198,9.89741l-0.28907,0.67603c0,0 -0.44277,0.88555 -1.32832,0.44277c-0.88555,-0.44277 -0.44277,-1.32832 -0.44277,-1.32832l0.10696,-0.11602c0.68616,-4.04202 -0.45313,-8.05633 -0.80211,-12.03188c0,0 -0.08222,-0.98665 0.90443,-1.06887c0.48597,-0.0405 0.75252,0.17831 0.89791,0.41081c2.13271,1.66354 3.36867,3.48497 4.61435,5.85634c0.36297,0.69098 0.9129,2.86503 1.58826,3.27626c0.42368,0.25798 0.62241,-0.77261 0.92763,-1.16363c1.35465,-1.73544 1.62824,-2.742 0.76359,-4.88886c-0.71802,-1.61227 -0.90108,-0.15749 -0.9882,0.71328l0.00123,0.94075c0,0 0,0.99007 -0.99007,0.99007z"/></g><path d="M215.9498,180.52742c0.13804,-1.24235 1.38039,-1.10432 1.38039,-1.10432l1.26465,0.1407c0.01265,0.00101 0.02534,0.00201 0.03808,0.003c0.08709,-1.10463 0.20964,-2.18156 0.31596,-3.17365c0.08171,-0.76251 0.49638,-4.46487 0.89755,-5.00557c0.76952,-1.03715 2.48442,-0.73733 3.65825,-1.27581c2.50795,-1.15049 4.23561,-2.04535 7.02018,-2.26406c0,0 1.24632,-0.09587 1.34219,1.15045c0.09587,1.24632 -1.15045,1.34219 -1.15045,1.34219c-2.47599,0.18605 -3.894,1.01665 -6.12268,2.02166c-0.70979,0.32007 -1.44253,0.60235 -2.19816,0.79019c-0.23228,0.05774 -0.60082,-0.27635 -0.71502,-0.066c-0.56845,1.04707 -0.1184,2.3812 -0.2453,3.56585c-0.09161,0.85517 -0.23696,1.90925 -0.34604,3.03295c2.70615,0.10316 5.98225,0.25804 7.83544,1.30693c3.21804,1.8214 3.37735,8.45305 -0.04129,9.99872c-1.11511,0.50417 -3.6865,0.02003 -4.85994,-0.08662c-4.54409,-0.85527 -5.52441,-4.74665 -5.50493,-8.84011c-0.05322,-0.00357 -0.10582,-0.00727 -0.15777,-0.0111l-1.30678,-0.14502c0,0 -1.24235,-0.13804 -1.10432,-1.38039zM220.9438,182.1702c-0.02639,2.96173 0.60925,5.77021 3.41691,6.25667c0.58518,0.05321 4.0138,0.70444 4.30027,-0.20743c0.33494,-1.06615 0.42101,-4.41521 -0.91579,-5.02333c-1.74439,-0.79354 -4.44211,-0.93744 -6.80139,-1.02592z"/></g></g></svg>