<svg version="1.1" xmlns="http://www.w3.org/2000/svg" xmlns:xlink="http://www.w3.org/1999/xlink" width="314.94162" height="155.59713" viewBox="0,0,314.94162,155.59713"><g transform="translate(-87.25743,-76.43474)"><g data-paper-data="{&quot;isPaintingLayer&quot;:true}" fill="#faff00" fill-rule="nonzero" stroke="none" stroke-width="0.5" stroke-linecap="butt" stroke-linejoin="miter" stroke-miterlimit="10" stroke-dasharray="" stroke-dashoffset="0" style="mix-blend-mode: normal"><path d="M130.24095,232.03187c-6.25,0 -6.25,-6.25 -6.25,-6.25c0,-5.33169 0,-12.54516 0,-17.87685c0,-0.19308 -0.03309,-7.84078 0.0807,-8.52823c0.32393,-1.95693 1.67341,-3.67273 1.88177,-5.64532c0.15642,-1.48078 -0.20334,-2.98759 -0.03388,-4.46694c0.44412,-3.87685 1.5633,-4.52083 1.86536,-8.3202c0.49259,-6.19593 -0.77792,-12.64231 0,-18.81773c0.0923,-0.73273 0.23232,-1.61514 0.41333,-2.56215c-3.83811,-2.98993 -8.43226,-13.20388 -10.13367,-16.60819c-1.54628,-3.09392 -3.77783,-5.86022 -4.97935,-9.10362c-0.64584,-1.74339 -0.10197,-3.8215 -0.88786,-5.5064c-2.3728,-5.08723 -6.79997,-9.16179 -8.59956,-14.47889c-0.50767,-1.49998 0.084,-3.2691 -0.55454,-4.71821c-0.47238,-1.07203 -1.97773,-1.3829 -2.57734,-2.38931c-0.85111,-1.42855 -0.72822,-3.3241 -1.65085,-4.70753c-2.23234,-3.34728 -5.38844,-6.00304 -7.69205,-9.30167c-1.33679,-1.91421 -2.11121,-4.16505 -3.16682,-6.24757c0,0 -2.79508,-5.59017 2.79508,-8.38525c5.59017,-2.79508 8.38525,2.79508 8.38525,2.79508c2.7128,5.5198 7.20662,9.97232 10.61739,15.09033c0.80946,1.21462 0.59141,2.91467 1.33594,4.17014c0.76065,1.28265 2.45921,1.89469 3.06798,3.25601c0.91241,2.04031 0.63074,4.44869 1.32723,6.57243c1.21602,3.70787 7.51539,11.9892 8.3364,13.74771c0.82761,1.77265 0.3381,3.9411 0.99392,5.78424c0.50971,1.43251 1.68786,2.53282 2.43636,3.85632c1.8455,3.26325 3.85545,6.49594 5.19591,9.99055c1.29089,-2.88667 3.18528,-5.68987 4.25056,-8.43388c1.44914,-3.73277 2.20663,-7.72291 3.80716,-11.39332c0.66818,-1.53232 9.03183,-16.4967 10.48747,-19.11285c3.92607,-8.79297 8.84032,-16.3227 14.34592,-24.21113l3.7752,-2.66267c0,0 5.20031,-3.46688 8.66719,1.73344c3.46688,5.20031 -1.73344,8.66719 -1.73344,8.66719l-1.87012,1.10088c-4.3552,7.09526 -8.62503,13.323 -11.99891,20.95143c-0.70341,1.26798 -9.9187,17.84583 -10.21204,18.52262c-0.62567,1.44354 -1.19384,2.91146 -1.73803,4.38941c1.23617,2.82191 -0.51505,5.7406 -0.51505,5.7406c-0.7723,1.21609 -1.83979,2.28898 -2.3169,3.64828c-0.64792,1.84593 -0.37029,3.92996 -0.99392,5.78424c-0.38652,1.14928 -1.50079,1.93812 -1.97812,3.05276c-0.50905,1.18871 -0.43031,2.57549 -0.94089,3.76355c-1.63488,3.80424 -2.71915,4.06058 -3.25968,8.43715c-0.75995,6.1532 0.53389,12.63377 0,18.81773c-0.25295,2.9299 -1.58429,5.69177 -1.89818,8.61577c-0.17583,1.63794 0.19292,3.31027 -0.03388,4.94193c-0.27308,1.96468 -1.55118,3.6895 -1.88177,5.64532c-0.36258,2.14506 0.0807,4.35047 0.0807,6.52595c0,5.33169 0,10.66338 0,15.99507v1.88177c0,0 0,6.25 -6.25,6.25z"/><path d="M180.39296,163.96836c1.5482,-1.49869 2.81398,-3.35951 4.64461,-4.49608c8.8618,-5.50194 18.40929,-6.07948 27.90676,-9.2453l2.91731,-0.32073c0,0 6.25,0 6.25,6.25c0,5.97403 -5.71025,6.23781 -6.21452,6.24946c-8.7051,2.67827 -18.35453,2.94981 -25.34704,9.13026c0.06735,0.1664 0.1313,0.33987 0.19157,0.5207c1.97642,5.92927 -3.95285,7.90569 -3.95285,7.90569c-1.19026,0.39675 -2.38053,0.79351 -3.57079,1.19026c0.76102,1.10687 1.61734,2.16731 1.97227,3.44366c0.56948,2.04789 0.18668,4.24755 0.22678,6.37277c0.08868,4.69966 0,9.41228 0,14.1133c0,0.84493 0.1563,1.72355 0.25837,2.59047c0.26337,-0.10847 0.51646,-0.2246 0.73551,-0.36607c3.11777,-0.27163 6.29798,-0.13722 9.3533,-0.8149c3.85279,-0.85456 7.39013,-2.83764 11.22954,-3.75045c2.62075,-0.62307 5.4347,-0.14042 8.03861,-0.83048c1.89994,-0.5035 3.39624,-2.02868 5.24705,-2.69035c3.32818,-1.18984 6.7604,-2.07259 10.14852,-3.08346c0.12518,-0.43841 0.30325,-0.89739 0.54302,-1.37694c2.79508,-5.59017 8.38525,-2.79508 8.38525,-2.79508l3.64244,1.82122c2.11404,1.00215 3.57602,3.15571 3.57602,5.65072c0,2.8115 -1.8564,5.18941 -4.4103,5.97485l-2.60468,0.86823c-4.88884,1.82403 -10.02878,2.91055 -14.94345,4.66403c-2.11204,0.75355 -3.87767,2.3742 -6.04359,2.95497c-2.88452,0.77345 -5.99236,0.35866 -8.89735,1.05129c-3.8791,0.92488 -7.45172,2.94442 -11.35174,3.77665c-3.71511,0.79277 -7.56414,0.71125 -11.34621,1.06687c-4.07658,-0.60805 -8.76574,0.40945 -12.22973,-1.82416c-2.09263,-1.34935 -1.48041,-4.77687 -1.83058,-7.24208c-0.61787,-4.34985 0,-9.69102 0,-14.1133c0,-1.88177 -0.04914,-3.76419 0,-5.64532c0.0265,-1.01451 0.54978,-2.07402 0.22678,-3.0361c-0.51841,-1.54413 -2.02224,-2.60742 -2.62895,-4.11904c-0.54416,-1.35577 -0.5967,-2.85668 -0.8853,-4.29256c-0.16603,-0.4077 -0.29513,-0.86178 -0.37675,-1.36751c-0.58628,-1.62312 -1.58982,-3.12005 -1.86833,-4.8206c-1.0323,-6.3029 -0.11277,-16.98834 -0.11277,-22.95778c0,-16.57718 0,-33.15435 0,-49.73153c0,0 0,-6.25 6.25,-6.25c6.25,0 6.25,6.25 6.25,6.25c0,1.36658 0,2.73317 0,4.09975c10.14819,0 20.29639,0 30.44458,0h0.94089c0,0 6.25,0 6.25,6.25c0,6.25 -6.25,6.25 -6.25,6.25c-10.1503,0 -21.15313,0 -31.38547,0c0,2.71059 0,5.42118 0,8.13177c0,12.14204 0,24.28407 0,36.42611c0,1.04395 -0.07314,2.09289 -0.14896,3.14168c0.4111,-0.61581 0.77018,-0.97489 0.77018,-0.97489z"/><path d="M320.95593,153.61861c4.41942,4.41942 0,8.83883 0,8.83883l-0.94089,0.94089c-1.11736,0.99094 -1.99376,2.352 -3.35208,2.97282c-0.85684,0.39162 -1.99661,0.7193 -3.27409,0.99817c0.60517,3.08285 1.19176,6.16751 1.75918,9.25274c1.46635,7.97297 3.14952,17.34138 1.99314,25.63764c-0.3655,2.62222 0.42808,5.96912 -1.48113,7.80339c-2.49547,2.39752 -6.59913,2.0865 -9.89869,3.12975l-4.27905,0.0213c0,0 -6.25,0 -6.25,-6.25c0,-6.25 6.25,-6.25 6.25,-6.25l3.00309,0.01969c0.0623,-0.43506 0.15578,-0.87853 0.15578,-1.29678c0,-2.1954 -0.00701,-4.39082 0,-6.58621c0.01817,-5.68827 -1.20483,-11.06331 -2.32348,-16.63121c-0.47247,-2.35165 -0.95137,-4.70164 -1.43485,-7.05049c-4.57513,0.81555 -9.27427,2.29493 -13.83886,2.61556c-5.58689,0.39244 -11.22037,0.21904 -16.7766,0.92304c0,0 -6.20174,0.77522 -6.97695,-5.42652c-0.77522,-6.20174 5.42652,-6.97695 5.42652,-6.97695c5.66439,-0.69934 11.39909,-0.60193 17.09532,-0.95873c4.09503,-0.25651 8.3828,-1.58019 12.52142,-2.39941c-0.75701,-3.59735 -1.51721,-7.19424 -2.27395,-10.79261c-2.43354,-11.57174 -3.9714,-23.68585 -10.35538,-33.70781c-0.58935,0.62157 -1.64603,1.40302 -2.63506,2.26414c-1.91033,1.66327 -4.14889,3.11214 -5.47315,5.27134c-1.0633,1.7337 -1.95805,3.58106 -3.17769,5.20858c-0.68638,0.91592 -1.94649,1.35494 -2.4941,2.35999c-1.35608,2.48887 -2.04181,6.37364 -3.17638,9.18722c-0.82767,2.05251 -2.12383,3.93674 -2.65596,6.08492c-0.95729,3.86458 -0.96766,7.91297 -1.77708,11.81121c-1.88795,9.09253 -4.30742,16.62529 -5.81977,25.89137c-1.95256,11.96321 -2.51162,23.77658 -2.51162,35.84852c0,0 0,6.25 -6.25,6.25c-6.25,0 -6.25,-6.25 -6.25,-6.25c0,-8.50092 0.07889,-16.59364 0.97509,-25.116c1.01414,-9.64393 2.46092,-19.57138 4.83245,-28.98837c0.86368,-3.42955 2.07348,-6.77274 2.79704,-10.23456c0.87338,-4.17865 0.943,-8.51239 1.98647,-12.65185c0.62673,-2.48627 2.04328,-4.70438 2.98936,-7.0875c1.51369,-3.81285 2.38514,-7.91151 4.35072,-11.51229c0.72706,-1.33191 2.24027,-2.07174 3.15122,-3.28533c1.92628,-2.56625 2.74748,-5.56839 5.02385,-7.90442c1.54426,-1.58474 3.48119,-2.73599 5.14304,-4.19694c1.318,-1.15867 5.04088,-5.46486 6.48092,-5.82163c2.83672,-0.7028 5.84462,0.06403 8.76692,0.09604c2.74683,2.93575 5.84365,5.57942 8.24049,8.80724c4.03441,5.43315 3.9305,9.58167 5.5557,16.03337c2.53992,10.08295 4.90542,20.24864 7.07507,30.45228c0.13093,-0.11085 0.24111,-0.24366 0.32432,-0.40357l0.94089,-0.94089c0,0 4.41942,-4.41942 8.83883,0z"/><path d="M367.65573,168.04382c-7.16762,0.30968 -14.13534,0.91315 -21.32166,0.94715c-0.01593,1.68306 -0.02539,3.36398 -0.02539,5.04214c0,12.25912 0.59632,24.61475 -1.02869,36.79765c-0.39044,2.92717 -1.33729,5.75379 -1.91534,8.64975l0.12137,-0.28484c0,0 0,6.25 -6.25,6.25c-6.25,0 -6.25,-6.25 -6.25,-6.25l0.12137,-2.16661c0.55599,-2.77479 1.47436,-5.48107 1.84821,-8.28621c1.52722,-11.45929 0.85308,-23.17402 0.85308,-34.70974c0,-15.76839 0.89842,-31.80625 0.01572,-47.54217c-0.12421,-2.21421 -0.77398,-4.37481 -0.94089,-6.58621c-0.33726,-4.46852 -0.01572,-9.12382 -0.01572,-13.61547c0,0 0,-6.25 6.25,-6.25c6.25,0 6.25,6.25 6.25,6.25c0,4.19435 -0.3432,8.55667 -0.01572,12.72936c0.17351,2.21089 0.819,4.37187 0.94089,6.58621c0.56289,10.22617 0.41436,20.56747 0.23279,30.88496c6.91191,-0.04459 13.60468,-0.63576 20.50731,-0.93045c4.26951,-0.18228 14.85284,1.31545 19.97531,-0.62792l2.32373,-0.25547c0.10546,-9.96816 0.77916,-20.19752 0.00462,-30.06678c-0.33149,-4.22389 -0.94567,-8.43772 -0.95661,-12.67458c0,0 0,-6.25 6.25,-6.25c6.25,0 6.25,6.25 6.25,6.25c-0.01191,3.94155 0.62852,7.85808 0.92516,11.78847c0.85078,11.2724 0.06554,23.01148 0.01572,34.31498c-0.01823,4.13536 0.49971,8.31415 -0.10029,12.4058c-0.38878,2.65129 -2.40483,4.88022 -2.82266,7.52709c-0.52503,3.326 0.41859,6.75566 0.03988,10.10148c-0.27983,2.47224 -1.39149,4.77875 -1.99732,7.1919c-0.45552,1.81443 -0.4847,3.75105 -1.18542,5.48559c-1.17465,2.9077 -3.65967,5.14748 -4.91947,8.01931c-0.55704,1.26982 -2.22478,7.59364 -3.12056,9.00785c-2.85869,4.51315 -7.44564,6.18079 -12.2687,7.482l-8.0469,-5.15008c0,0 -2.79508,-5.59017 2.79508,-8.38525c2.62722,-1.31361 4.63708,-0.77514 6.02958,0.1647c2.21926,-1.96381 2.51345,-6.67378 3.38256,-8.61111c0.84939,-1.89338 3.73579,-5.12241 4.48939,-7.03488c0.48693,-1.23572 0.37585,-2.63433 0.69635,-3.92328c0.50158,-2.0172 1.54111,-3.91412 1.76623,-5.98052c0.3826,-3.51192 -0.51122,-7.10858 0.03988,-10.59803c0.41802,-2.64684 2.41536,-4.87858 2.82266,-7.52709c0.05256,-0.34175 0.09353,-0.68432 0.12471,-1.02758c-7.1166,1.77795 -14.55065,0.54077 -21.89027,0.85788z"/></g></g></svg>