<svg version="1.1" xmlns="http://www.w3.org/2000/svg" xmlns:xlink="http://www.w3.org/1999/xlink" width="49.34675" height="28.3587" viewBox="0,0,49.34675,28.3587"><g transform="translate(-218.83269,-161.40054)"><g data-paper-data="{&quot;isPaintingLayer&quot;:true}" fill-rule="nonzero" stroke="none" stroke-width="0.5" stroke-linecap="butt" stroke-linejoin="miter" stroke-miterlimit="10" stroke-dasharray="" stroke-dashoffset="0" style="mix-blend-mode: normal"><g fill="#00a9ff"><path d="M243.44458,180.92645c0.60499,0 0.8403,0.36969 0.93182,0.65726c1.26059,1.62122 1.30428,5.19055 -1.35536,5.76341c-0.564,0.12148 -1.10212,-0.34166 -1.65318,-0.51249c-1.40718,-1.08126 -1.88169,-2.06753 -2.74594,-3.38858c0.22846,1.63184 0.52579,3.23717 0.79997,4.76623c0.16239,0.2481 0.36529,0.74196 -0.12857,1.23581c-0.70009,0.70009 -1.40017,0 -1.40017,0l-0.37393,-0.62703c-0.95851,-5.48667 -2.15643,-11.67376 -0.15004,-17.05387c0,0 0.34764,-0.92703 1.27467,-0.57939c0.76618,0.28732 0.66166,0.97041 0.60232,1.19881c3.20595,-0.4999 5.83362,1.51241 4.43897,5.10713c-1.02585,2.64415 -3.47167,1.79111 -5.42207,2.26021c0.00561,0.12538 0.01203,0.25082 0.0192,0.37631c0.21736,0.18472 0.54254,0.40286 0.68183,0.56604c0.35726,0.41852 0.74263,0.81714 1.05177,1.27236c0.86783,1.2779 1.08286,2.1557 2.33721,3.14834c0.73106,0.62509 1.38696,-1.87446 0.49746,-2.3094l-0.39603,-0.89106c0,0 0,-0.99007 0.99007,-0.99007zM241.54206,177.27969c0.59164,-0.33752 0.42046,-2.58321 0.16068,-3.03549c-0.23415,-0.40766 -1.99002,0.06049 -2.32129,0.12856c0,0 -0.37241,0.07448 -0.70206,-0.09947c-0.26785,1.16459 -0.39985,2.36689 -0.43465,3.586c1.18224,-0.18694 2.65128,-0.21105 3.29732,-0.5796z"/><path d="M250.83414,175.43267c-0.34764,-0.92703 0.57939,-1.27467 0.57939,-1.27467l0.14962,0.63001c0.03851,-2.09863 -2.04945,-1.33322 -3.88435,-1.191c0,0 -0.02737,0.00211 -0.07336,0.00106c0.30802,1.37698 0.35026,2.83506 0.34312,4.3052c0.80784,-0.03756 1.60852,-0.04604 2.4265,-0.04604l0.43128,-0.08554c0,0 0.9766,-0.16277 1.13937,0.81383c0.16277,0.9766 -0.81383,1.13937 -0.81383,1.13937l-0.75681,0.11248c-0.82547,0 -1.63102,0.00757 -2.4464,0.04871c-0.00596,1.11541 0.01574,2.21987 0.1602,3.28303c0.05111,0.37613 -0.05989,2.70423 0.0038,2.79977c0.25782,0.38674 0.92656,-0.09591 1.39134,-0.09208c2.25913,0.0186 1.98014,-1.0252 1.98014,-2.8712v-0.39603c0,0 0,-0.99007 0.99007,-0.99007c0.99007,0 0.99007,0.99007 0.99007,0.99007v0.39603c0,0.23372 0.02032,2.6184 -0.06326,2.82341c-0.80205,1.96735 -5.30704,3.12069 -6.86199,1.34181c-0.47286,-0.54095 -0.28626,-2.96045 -0.39223,-3.73469c-0.44751,-3.26972 0.4813,-7.33568 -0.73511,-10.37184c0,0 -0.35541,-0.92408 0.56866,-1.27949c0.42526,-0.16356 0.73009,-0.05615 0.93527,0.10748c0.26877,-0.24168 0.6313,-0.26956 0.6313,-0.26956c2.95926,-0.226 5.96725,-0.63405 6.01636,3.16531l-1.43449,1.22405c0,0 -0.92703,0.34764 -1.27467,-0.57939z"/><path d="M263.74101,177.85723c-0.99007,0 -0.99007,-0.99007 -0.99007,-0.99007l0.00123,-1.03939c0.05648,-0.56505 0.15517,-2.20501 0.53484,-2.57596c1.72721,-1.68752 3.32139,-0.36629 4.21936,1.11109c1.10777,2.78375 0.90164,4.6865 -1.01854,6.99198c-0.86033,1.03297 -1.25677,2.22016 -3.03265,1.80658c-1.19841,-0.2791 -1.87479,-2.36709 -2.30048,-3.31452c-0.78077,-1.7377 -1.66503,-3.26434 -2.8695,-4.59584c0.43793,3.27947 1.0407,6.55098 0.49198,9.89741l-0.28907,0.67603c0,0 -0.44277,0.88555 -1.32832,0.44277c-0.88555,-0.44277 -0.44277,-1.32832 -0.44277,-1.32832l0.10696,-0.11602c0.68616,-4.04202 -0.45313,-8.05633 -0.80211,-12.03188c0,0 -0.08222,-0.98665 0.90443,-1.06887c0.48597,-0.0405 0.75252,0.17831 0.89791,0.41081c2.13271,1.66354 3.36867,3.48497 4.61435,5.85634c0.36297,0.69098 0.9129,2.86503 1.58826,3.27626c0.42368,0.25798 0.62241,-0.77261 0.92763,-1.16363c1.35465,-1.73544 1.62824,-2.742 0.76359,-4.88886c-0.71802,-1.61227 -0.90108,-0.15749 -0.9882,0.71328l0.00123,0.94075c0,0 0,0.99007 -0.99007,0.99007z"/></g><path d="M223.905,164.23317c-1.86018,0.74512 -3.00981,2.58611 -2.22045,5.24892c0.44596,1.50438 2.42916,2.06379 3.5532,2.90514c0.29249,0.21893 0.5812,0.44309 0.86527,0.67267c0.48497,-2.58922 -0.20688,-5.77846 -0.49554,-8.0687l-0.91736,-0.12846c0,0 -0.53885,-0.16166 -0.78511,-0.62957zM225.10779,175.4824c-0.45542,-0.38842 -0.92173,-0.75831 -1.3898,-1.11014c-1.94643,-1.46306 -3.53556,-1.65849 -4.4468,-4.23772c-2.07004,-5.85915 3.58779,-9.63779 8.6207,-8.54646c0,0 1.22023,0.27116 0.94907,1.4914c-0.1815,0.81677 -0.78822,0.96534 -1.1696,0.97429c1.09154,3.15406 1.62978,7.59974 0.501,10.8724c1.60176,1.62522 2.93194,3.48339 3.77405,5.62076c0.79975,2.93194 -1.52256,8.28669 -5.45902,7.64711c-2.54969,-0.41426 -2.88973,-1.53814 -4.13815,-3.50837c-0.44337,-0.69972 -1.10562,-1.33056 -1.2539,-2.14554c-0.44589,-2.45069 2.65455,-5.14257 4.01244,-7.05773zM226.94146,177.23487c-0.81684,1.12058 -1.81923,2.15238 -2.52531,3.34371c-0.31339,0.52877 -1.01799,1.05202 -0.84147,1.64078c0.35889,1.197 1.89428,3.19105 3.17938,3.48894c1.85628,0.4303 3.30239,-2.98425 2.82669,-4.35289c-0.569,-1.52781 -1.51325,-2.89787 -2.6393,-4.12055z" fill="#00a9ff"/></g></g></svg>