<svg version="1.1" xmlns="http://www.w3.org/2000/svg" xmlns:xlink="http://www.w3.org/1999/xlink" width="148.9853" height="89.9125" viewBox="0,0,148.9853,89.9125"><g transform="translate(-165.50735,-135.04375)"><g data-paper-data="{&quot;isPaintingLayer&quot;:true}" fill="#faff00" fill-rule="nonzero" stroke="none" stroke-width="0.5" stroke-linecap="butt" stroke-linejoin="miter" stroke-miterlimit="10" stroke-dasharray="" stroke-dashoffset="0" style="mix-blend-mode: normal"><path d="M176.74223,162.80651l-0.37191,0.54783c1.97022,-1.57602 4.1962,-2.52643 4.65441,-5.23627c0.12929,-0.76461 -0.02779,-1.55117 -0.00783,-2.32637c0.0073,-0.28373 0.35194,-0.73861 0.08952,-0.84677c-1.346,-0.55474 -2.90836,0.17041 -4.36419,0.17003c-1.58163,-0.00041 -3.08272,0.10728 -4.58583,0.27175c0.96194,2.68818 1.84989,5.43483 2.68976,8.20613c0.73983,-0.78633 1.89607,-0.78633 1.89607,-0.78633zM165.54192,153.76174c-0.35355,-2.47487 2.12132,-2.82843 2.12132,-2.82843c3.91569,-0.55938 8.04063,-1.32109 12.01061,-0.81352c1.55443,0.19874 3.36436,-0.00216 4.60252,0.95842c1.121,0.86969 1.38397,2.52413 1.67597,3.91256c1.23629,5.87857 -2.41619,9.0337 -6.45853,12.2679l-2.75157,0.54783c0,0 -0.297,0 -0.68626,-0.10237c1.07568,3.75375 2.08728,7.52197 3.09804,11.22207l0.46157,0.46137c0,0 1.38675,2.08013 -0.69338,3.46688c-2.08013,1.38675 -3.46688,-0.69338 -3.46688,-0.69338l-1.12487,-1.9183c-2.21906,-8.13683 -4.42717,-16.6579 -7.38052,-24.54305c-0.61994,-0.24743 -1.24354,-0.78664 -1.40802,-1.938z"/><path d="M205.93057,160.83309c0.62715,-0.40983 1.8728,-0.91967 3.11846,0.32599c1.76777,1.76777 0,3.53553 0,3.53553l-2.16438,1.12884c-2.30781,-0.00223 -4.61445,0.17602 -6.91266,0.38634c0,0 -2.48973,0.22634 -2.71607,-2.26339c-0.22634,-2.48973 2.26339,-2.71607 2.26339,-2.71607c2.13212,-0.1926 4.27085,-0.3566 6.41125,-0.39724z"/><path d="M219.56825,215.27682c-0.79057,2.37171 -3.16228,1.58114 -3.16228,1.58114l-0.60688,-0.27695c-3.48171,-0.2914 -12.30611,0.2982 -14.87544,-2.17442c-0.0013,-0.00125 -0.17273,-6.50543 -0.10467,-7.59419c0.56604,-9.05516 0.39279,-18.14133 0.39279,-27.2279c0,0 0,-1.24605 0.8797,-1.97876c-1.67554,-0.43334 -3.33539,-0.98471 -5.03146,-1.57117c-1.33896,-0.46298 -3.03582,-0.47359 -3.9578,-1.54927c-1.25447,-1.4636 -1.01072,-5.7589 -1.01248,-7.59235c-0.00698,-7.23571 1.10692,-14.95106 -1.43593,-21.75246c0,0 -0.85436,-2.34948 1.49513,-3.20384c2.34948,-0.85436 3.20384,1.49513 3.20384,1.49513c0.41609,1.17143 0.7396,2.34062 0.9902,3.5103c0.93037,0 3.218,0 4.43689,0c1.00615,-0.12577 2.0123,-0.25154 3.01844,-0.37731l1.89653,-0.01931c0,0 2.5,0 2.5,2.5c0,2.5 -2.5,2.5 -2.5,2.5l-1.27636,-0.01931c-0.77062,0.09633 -1.54123,0.19265 -2.31185,0.28898c-0.43172,0.12694 -0.77452,0.12694 -0.77452,0.12694c-0.92543,0 -1.85085,0 -2.77628,0l-1.52945,0c0.27178,3.84767 0.06334,7.74193 0.06334,11.77799c0,0.05538 0.00222,6.00143 -0.00629,6.16855c-0.0225,0.44193 -0.52978,1.00137 -0.21297,1.31031c0.38068,0.37123 1.07554,-0.07751 1.59475,0.03717c3.52593,0.77875 6.36045,2.31893 10.00589,2.2789l-0.32481,-0.13268c0,0 2.23607,-1.11803 3.3541,1.11803c1.11803,2.23607 -1.11803,3.3541 -1.11803,3.3541l-1.91126,0.66054c-0.87226,-0.00736 -1.72564,-0.06687 -2.56611,-0.16899c0.30678,0.62114 0.30678,1.23849 0.30678,1.23849c0,7.94133 0.40997,16.00511 -0.00383,23.9349c-0.11074,2.12221 0.03636,4.28256 -0.39762,6.36287c-0.1196,0.5733 -1.40549,1.22042 -0.89688,1.51076c0.91411,0.52183 2.09763,-0.19252 3.14971,-0.2247c3.23707,-0.09902 4.69002,0.14272 8.15117,0.42995l1.77279,0.51627c0,0 2.37171,0.79057 1.58114,3.16228z"/><path d="M214.69654,146.26919l0.93826,-2.34878c1.06772,-0.82626 2.25808,-1.50891 3.50632,-2.05231c-0.37322,-0.44624 -0.618,-1.09802 -0.42993,-2.03836c0.49029,-2.45145 2.94174,-1.96116 2.94174,-1.96116c2.40208,0.50668 4.71301,1.45624 6.90482,2.562c1.16857,0.58954 2.95078,0.34993 3.64534,1.4593c0.66926,1.06896 0.91774,2.35171 0.9827,3.65372c0.23894,-0.71907 0.53007,-1.4255 0.88579,-2.11567c0.53667,-1.04123 2.20393,-2.41913 3.6837,-3.53702c-0.72349,-0.23513 -1.64176,-0.83201 -1.64176,-2.34716c0,-2.5 2.5,-2.5 2.5,-2.5c2.73236,0.0202 4.54908,0.20155 6.50494,0.83589c3.74105,0.28202 6.72086,1.83646 10.50627,2.36212l1.0176,4.63925c0,0 -1.76777,1.76777 -3.53553,0c-0.02278,-0.02278 -0.04497,-0.04556 -0.06659,-0.06833c-1.22905,-0.30797 -2.41353,-0.70444 -3.59834,-1.06144c-1.74704,1.66696 -3.47406,-0.06006 -3.47406,-0.06006l0.25312,0.07169c-0.76926,-0.38707 -1.40817,-0.69034 -1.99091,-0.92694c-0.0213,0.00028 -0.04261,0.00063 -0.06394,0.00104c0,0 -0.10724,0 -0.27731,-0.02221c-0.22244,0.92287 -0.99897,1.50527 -0.99897,1.50527c-1.54027,1.15121 -3.66719,1.88125 -4.49367,3.61754c-0.7764,1.63108 -1.138,3.42018 -1.31104,5.2609c0.78201,0.06122 1.56521,0.09959 2.34918,0.10648l1.1623,-0.00015c0,0 0.75843,0 1.43982,0.41774c0.28304,0.0287 0.46839,0.08431 0.46839,0.08431c3.42149,1.05266 5.68433,1.0844 9.1969,1.0844h1.18983c0,0 1.66593,0 2.27794,1.35993c0.70868,-4.55725 1.73717,-9.32638 3.93778,-13.23762c-0.43594,-0.36662 -0.7835,-0.95121 -0.7835,-1.88336c0,-2.5 2.5,-2.5 2.5,-2.5c0.57563,0 1.15126,0 1.72689,0c0.07983,-0.07201 0.16055,-0.14328 0.24215,-0.21377c0,0 1.84783,-1.53986 3.42889,0.21377c1.10917,0 2.21834,0 3.32751,0h0.79322c0,0 2.5,0 2.5,2.5c0,2.5 -2.5,2.5 -2.5,2.5c-1.75156,0 -3.7908,0 -5.77122,0c-1.14731,1.36037 -1.791,2.90544 -2.23625,4.55467c1.73075,0.09806 3.45831,0.39071 5.12478,0.8534l0.50303,-0.09619c0,0 2.5,0 2.5,2.5c0,2.5 -2.5,2.5 -2.5,2.5l-1.87664,-0.09619c-1.53543,-0.45453 -3.15224,-0.70195 -4.7542,-0.69773c-0.13585,0.69819 -0.2863,1.40055 -0.46991,2.10216c-0.37451,1.43105 -1.2376,2.71359 -1.54228,4.16112c-0.21555,1.02409 0.23779,2.11913 0.00564,3.13958c-0.20237,0.88954 -1.3587,1.51556 -1.27127,2.42362c0.05584,0.57994 1.00273,0.65606 1.57717,0.75338c0.81699,0.13841 1.64631,0.15909 2.47759,0.16428c0.01536,-0.03322 0.03146,-0.0667 0.04833,-0.10043c1.11803,-2.23607 3.3541,-1.11803 3.3541,-1.11803l3.12444,1.56222c0.84561,0.40086 1.43041,1.26228 1.43041,2.26029c0,1.38071 -1.11929,2.5 -2.5,2.5h-2.77628v-0.06045l-0.15534,0.05562c-4.0851,-0.51064 -9.2155,0.56707 -11.35299,-4.52603c-0.62484,-1.48883 0.88354,-3.11648 1.1084,-4.71537c0.1188,-0.84473 0.23619,-1.71607 0.35913,-2.6053c-0.74073,0.74643 -1.85752,0.74643 -1.85752,0.74643h-1.18983c-3.97702,0 -6.74522,-0.15364 -10.63364,-1.29527c0,0 -0.28081,-0.08424 -0.62126,-0.2912l-1.06757,-0.00013c-0.82346,-0.0107 -1.64617,-0.05058 -2.46776,-0.11232c-0.01326,1.46647 -0.03536,2.90543 -0.17938,4.2637c-0.18407,1.73606 -0.70561,3.41932 -1.04692,5.13219c0.24095,0.18239 0.47349,0.43351 0.68565,0.77296c1.325,2.12 -0.795,3.44499 -0.795,3.44499l-1.40296,0.68875c-0.43526,0.51171 -1.07303,0.84583 -1.7894,0.87846l-1.58842,0.77979c-3.8316,-2.98433 -6.98131,-5.84119 -9.55374,-10.05034c-0.29598,-0.48429 -0.65315,-0.95978 -1.02174,-1.43571c0.10044,3.07216 0.27022,6.12038 0.27022,9.00211v1.18983c0,0 0,2.5 -2.5,2.5c-2.5,0 -2.5,-2.5 -2.5,-2.5v-1.18983c0,-6.88125 -0.76479,-14.38909 0.26287,-21.28973c-1.05609,-0.70281 -1.05609,-2.11031 -1.05609,-2.11031zM222.64267,145.89672c-0.47599,0.12553 -0.9499,0.28134 -1.41165,0.46896c-0.01247,0.0724 -0.02268,0.11323 -0.02268,0.11323c-0.60072,2.33995 -0.88704,4.82148 -0.99981,7.36061c0.55767,-0.25018 1.12557,-0.48472 1.58386,-0.75799c2.96342,-1.76704 5.46265,-2.0597 6.40988,-5.94549c0.16157,-0.66282 0.59162,-1.50849 0.16404,-2.04009c-0.39933,-0.49648 -1.3154,0.10892 -1.90721,-0.12714c-0.7478,-0.29828 -1.2793,-1.00795 -1.97672,-1.39957c0.04276,1.78963 -1.8397,2.32748 -1.8397,2.32748zM231.09438,155.4825c0,0 -1.02307,-0.1574 -1.65132,-0.92794c-1.00545,0.91145 -2.11141,1.68075 -3.17987,2.27124c-0.78858,0.43581 -1.66117,0.78263 -2.5574,0.87513c-0.28829,0.02976 -0.90161,-0.51092 -0.95489,-0.5586c0.0063,0.00573 0.02081,0.019 0.0448,0.04137c1.93877,1.8077 3.61268,3.88421 5.30115,5.92766c0.248,0.30014 0.51682,0.58874 0.7918,0.8741c0.24735,-0.42244 0.67635,-0.80988 1.39869,-1.05066c0.33725,-0.11242 0.64253,-0.16089 0.91811,-0.16134c0.23387,-0.96914 0.46078,-1.93905 0.56408,-2.92835c0.14411,-1.38009 0.19392,-2.79698 0.23214,-4.22651c-0.3027,-0.04449 -0.60514,-0.08998 -0.90729,-0.1361z"/><path d="M290.24472,163.62638c0.49029,2.45145 -1.96116,2.94174 -1.96116,2.94174l-2.47334,0.44516c-4.00745,-0.02963 -8.58413,0.14484 -10.63853,-4.31957c-0.23602,-0.5129 -0.19134,-5.56523 -0.1903,-6.50926c0.00851,-7.749 3.16179,-15.95689 12.29569,-15.57276c1.0097,0.04246 1.9288,0.60408 2.8932,0.90612c0,0 2.37171,0.79057 1.58114,3.16228c-0.79057,2.37171 -3.16228,1.58114 -3.16228,1.58114c-6.78375,-2.47312 -8.61409,4.50864 -8.60776,9.92323c0.00179,1.53326 -0.63475,3.12841 -0.1903,4.59584c0.56175,1.85472 5.41037,1.2385 6.01913,1.23298l1.49276,-0.34806c0,0 2.45145,-0.49029 2.94174,1.96116z"/><path d="M304.05431,168.99634c-2.5,0 -2.5,-2.5 -2.5,-2.5l0.02513,-0.75016c0.94989,-6.63503 2.30435,-12.66531 4.22058,-18.99524c-3.29591,-0.68142 -6.44559,-1.60726 -9.79845,-1.16992c0,0 -2.48471,0.27608 -2.76079,-2.20863c-0.27608,-2.48471 2.20863,-2.76079 2.20863,-2.76079c4.72901,-0.45805 8.5894,0.92179 13.28248,1.59106l3.53072,0.392c0,0 2.48471,0.27608 2.20863,2.76079c-0.27608,2.48471 -2.76079,2.20863 -2.76079,2.20863l-0.90011,-0.10009c-1.96571,6.36656 -3.33316,12.33973 -4.28116,18.98931l0.02513,0.04306c0,0 0,2.5 -2.5,2.5z"/><path d="M198.231,219.1519c0.49029,2.45145 -1.96116,2.94174 -1.96116,2.94174l-2.47334,0.44516c-3.47923,-0.00327 -6.82628,-0.32724 -10.26882,-0.81835c-5.55614,-0.80015 -12.99623,-2.591 -16.07911,-7.94944c-2.3674,-4.11485 -0.66263,-7.87372 0.09099,-12.02348c0.94588,-5.2084 0.88449,-11.20618 5.18501,-14.92963c6.64907,-5.75685 14.58187,-3.38086 22.65838,-3.38764c0,0 2.5,0 2.5,2.5c0,2.5 -2.5,2.5 -2.5,2.5c-6.66437,-0.00521 -13.86877,-2.33465 -19.38237,2.16491c-3.10475,2.53373 -2.87596,8.38979 -3.54043,12.03991c-0.40873,2.24528 -1.41948,4.47611 -1.17429,6.74508c0.57516,5.32244 8.76351,6.79792 12.94893,7.39054c3.20833,0.459 6.31866,0.7714 9.56172,0.7681l1.49276,-0.34806c0,0 2.45145,-0.49029 2.94174,1.96116z"/><path d="M246.34743,218.45236l0.59492,2.5c-5.01345,0 -10.00541,0.19921 -14.98469,-0.41592c0,0 -1.69399,-0.21175 -2.1073,-1.68513c-0.26215,1.4767 -0.64207,2.95404 -1.19095,4.44497c0,0 -0.87781,2.34082 -3.21863,1.46301c-2.34082,-0.87781 -1.46301,-3.21863 -1.46301,-3.21863c0.52553,-1.37072 0.85858,-2.6676 1.06921,-3.96242c-0.31016,-0.40684 -0.50905,-0.979 -0.41987,-1.78162c0.0842,-0.75784 0.37387,-1.25885 0.73583,-1.58921c0.03608,-0.92841 0.04242,-1.8852 0.0421,-2.89404c-0.00133,-4.26031 0.64417,-9.26739 0.03228,-13.48092c-0.35115,-2.41805 -1.2067,-4.74261 -1.58913,-7.15591c-0.55913,-3.52834 -1.19536,-4.54719 -1.21633,-8.19123c-0.00887,-1.54217 -0.56553,-3.38593 0.37027,-4.61175c2.51852,-3.29905 8.55124,-3.92349 12.34736,-3.15c1.61547,0.32917 3.69426,0.25258 4.69181,1.56521c3.44231,4.52957 1.41237,6.53343 -0.447,10.08862l-0.72776,1.46413c0,0 -1.11803,2.23607 -3.3541,1.11803c-2.23607,-1.11803 -1.11803,-3.3541 -1.11803,-3.3541l0.85868,-1.70876c0.43098,-0.65267 1.08767,-1.2033 1.29294,-1.95801c0.93381,-3.43331 -2.28061,-2.21488 -4.27827,-2.23386c-1.16186,-0.01103 -4.04252,-0.43572 -5.01237,0.79738c-0.36539,0.46456 0.29056,1.14839 0.37027,1.73402c0.1681,1.23503 0.18535,2.48834 0.37219,3.72068c0.43354,2.85959 1.31046,5.74674 1.92226,8.58613c0.19708,-0.00032 0.32154,0.01746 0.32154,0.01746c3.47364,0.50472 6.7341,0.62865 10.24608,1.21698l0.20989,5.13748c0,0 -0.31009,2.48069 -2.79078,2.17061c-2.48069,-0.31009 -2.17061,-2.79078 -2.17061,-2.79078l1.00311,-1.20829c-2.03455,1.32456 -4.08719,0.91955 -6.33921,0.5562c0.00878,2.65171 0.00491,6.42942 0.00491,6.91134c0,2.49846 0.05429,4.90922 -0.04373,7.28459c1.69081,0.09934 3.38661,0.13208 5.07934,0.13068h1.58644c0,0 2.16759,0 2.46608,2.01834c2.04906,0.02088 4.10141,-0.01684 6.1543,-0.03057c0.0669,-0.00472 0.10506,-0.00472 0.10506,-0.00472l0.00096,0.00403c0.39628,-0.00249 0.79258,-0.00403 1.18887,-0.00403z"/><path d="M272.84239,197.43199c0,2.5 -2.5,2.5 -2.5,2.5l-0.21874,-0.00711c0.02863,2.7272 0.01314,5.42708 0.16344,7.94629l-2.74568,2.6181c0,0 -1.95217,1.56174 -3.51391,-0.39043c-1.56174,-1.95217 0.39043,-3.51391 0.39043,-3.51391l1.22043,-0.55479c-0.62525,-1.76272 -0.84285,-3.53803 -0.90266,-5.32391c-1.27276,0.25455 -2.54553,0.50911 -3.81829,0.76366c0,0 -0.4438,0.08876 -0.9915,0.00192c-1.35698,4.0658 -3.14201,7.96877 -5.23627,11.83192c0,0 -1.19713,2.19474 -3.39187,0.99761c-2.19474,-1.19713 -0.99761,-3.39187 -0.99761,-3.39187c2.02065,-3.6794 3.87712,-7.70415 5.4101,-11.58862c1.50007,-3.80109 1.41,-8.53113 2.17971,-12.4869c0.32561,-1.67341 1.60471,-7.57761 4.11975,-7.7341c3.9624,-0.24656 6.01973,5.56896 6.76908,8.12217c0.70627,2.40644 1.03604,5.02909 1.19563,7.7172l0.36796,-0.00722c0,0 2.5,0 2.5,2.5zM264.6796,192.50056c-0.17245,-1.99134 -0.95254,-3.87103 -1.5694,-5.7837c-0.1267,0.36353 -0.24876,0.72842 -0.31816,1.1018c-0.29889,1.60801 -0.43026,3.24311 -0.69042,4.85784c-0.19627,1.21817 -0.43256,2.41686 -0.70627,3.59877c1.12761,-0.22552 2.25522,-0.45104 3.38283,-0.67657c0.00844,-1.03002 -0.00892,-2.06286 -0.09858,-3.09815z"/><path d="M275.03464,210.15725c0.17782,-9.78582 0.73997,-19.5482 0.73997,-29.38292c0,0 0,-2.5 2.5,-2.5c2.5,0 2.5,2.5 2.5,2.5c0,11.68126 -0.79322,23.26552 -0.79322,34.90175v2.77628c0,1.38071 -1.11929,2.5 -2.5,2.5c-1.28702,0 -2.3469,-0.97254 -2.48481,-2.22282l-0.78911,-6.31287c0,0 -0.1795,-1.43597 0.82717,-2.25943z"/><path d="M306.84126,211.21692c2.09271,0.2556 2.09271,2.47611 2.09271,2.47611l-4.06174,2.34878c-0.69621,-0.5586 -1.39241,-1.1172 -2.08862,-1.6758c-1.46202,-1.46202 -2.42496,-3.47843 -4.16305,-4.59828c-0.91194,-0.58756 -2.13775,-0.53846 -3.05872,-1.11177c-2.543,-1.58305 -4.01797,-4.31871 -6.01522,-6.33306c-1.00688,-1.0155 -2.66973,-1.39753 -3.38486,-2.63593c-0.84337,-1.46049 -1.58594,-3.37759 -1.00118,-4.95947c0.80474,-2.17698 4.27922,-1.94791 6.04703,-3.45181c3.76982,-3.20702 -0.10923,-9.06612 -3.38839,-10.66848c-3.41474,-1.66861 -3.78674,-1.44888 -7.61217,-2.13255c0,0 -2.45967,-0.44721 -2.01246,-2.90689c0.44721,-2.45967 2.90689,-2.01246 2.90689,-2.01246c7.3167,1.3506 16.28303,4.64559 16.33072,13.54766c0.00799,1.49195 -0.05056,3.03553 -0.54755,4.44229c-0.47125,1.33392 -3.21535,5.39944 -5.57713,5.86122c0.67117,0.43298 1.30713,0.92133 1.87137,1.48035c0.68636,0.68001 0.96865,1.68835 1.61306,2.40824c1.04409,1.16638 2.13904,2.34407 3.47683,3.15702c1.0036,0.60987 2.31806,0.60442 3.28705,1.2679c1.84554,1.26366 2.9808,3.33879 4.56239,4.92038c0.24101,0.19218 0.48202,0.38436 0.72304,0.57654z"/></g></g></svg>