<svg version="1.1" xmlns="http://www.w3.org/2000/svg" xmlns:xlink="http://www.w3.org/1999/xlink" width="55.23118" height="19.90289" viewBox="0,0,55.23118,19.90289"><g transform="translate(-209.01358,-167.88164)"><g data-paper-data="{&quot;isPaintingLayer&quot;:true}" fill="#00ff9a" fill-rule="nonzero" stroke="none" stroke-width="0.5" stroke-linecap="butt" stroke-linejoin="miter" stroke-miterlimit="10" stroke-dasharray="" stroke-dashoffset="0" style="mix-blend-mode: normal"><path d="M209.01358,185.5226c0,-0.75 0.75,-0.75 0.75,-0.75l0.4886,0.00459c2.38178,-0.26257 4.29231,-0.30858 6.36934,-1.72778c0.57743,-0.39455 1.48348,-1.44251 1.09243,-2.2492c-0.24282,-0.5009 -3.13803,-1.17826 -3.68619,-1.45058c-1.67438,-0.67186 -3.28735,-1.56548 -4.20845,-3.18241c-1.42499,-2.50151 -0.35284,-6.91775 2.48527,-7.93357c3.3289,-1.19149 6.0197,0.89359 8.70201,2.50297c0,0 0.64312,0.38587 0.25725,1.02899c-0.38587,0.64312 -1.02899,0.25725 -1.02899,0.25725c-2.22943,-1.33766 -4.59632,-3.35617 -7.39246,-2.38894c-2.00475,0.69348 -2.69323,4.11592 -1.70598,5.81548c0.76006,1.30846 2.14766,1.99039 3.50584,2.53187c0.98709,0.497 3.72121,0.9523 4.31381,1.97799c2.7034,4.67914 -6.071,6.03232 -8.53823,6.30874l-0.65425,0.00459c0,0 -0.75,0 -0.75,-0.75z"/><path d="M224.71504,185.66269c-0.71151,0.23717 -0.94868,-0.47434 -0.94868,-0.47434l-0.17555,-0.75877c0.55689,-4.40817 0.13707,-9.4417 0.13707,-13.90697c0,0 0,-0.75 0.75,-0.75c0.75,0 0.75,0.75 0.75,0.75c0,4.53474 0.40574,9.61388 -0.14865,14.09303l0.11016,0.09837c0,0 0.23717,0.71151 -0.47434,0.94868z"/><path d="M235.76358,169.91546c0.75,0 0.75,0.75 0.75,0.75l-0.0102,0.26616c-0.1995,1.19657 -0.37547,2.3964 -0.57536,3.59308c-0.53829,2.36648 -0.84381,6.51603 -2.71883,8.29241c-0.55897,0.52956 -1.26579,1.36941 -2.00369,1.14943c-0.84116,-0.25077 -0.91228,-2.419 -1.03937,-3.18094c-0.32224,-1.93197 -0.60537,-3.65926 -1.06403,-5.33949c-0.14656,3.22568 -0.36201,6.51403 -1.1888,9.42539l-0.12856,0.65533c0,0 -0.14709,0.73544 -0.88252,0.58835c-0.73544,-0.14709 -0.58835,-0.88252 -0.58835,-0.88252l0.15715,-0.77324c1.11008,-3.85952 1.07996,-8.45037 1.2964,-12.60943c-0.19812,-0.40908 -0.41545,-0.82201 -0.65501,-1.24099c0,0 -0.3721,-0.65118 0.27908,-1.02329c0.34664,-0.19808 0.61419,-0.10619 0.78864,0.02308c0.11673,-0.08345 0.27734,-0.13667 0.49813,-0.11969c0.74779,0.05752 0.69027,0.80531 0.69027,0.80531c-0.03189,0.41458 -0.05953,0.83483 -0.0843,1.25963c1.12212,2.44901 1.56976,4.7279 2.07531,7.55375c0.11954,0.66817 0.41249,1.82621 0.42551,2.55497c0.00528,0.29581 -0.34073,0.70607 -0.10258,0.88162c0.56623,0.41741 0.64389,-1.25096 0.95741,-1.88068c0.99201,-1.99244 1.32167,-4.25735 1.81642,-6.42892c0.19659,-1.18234 0.37054,-2.36765 0.56749,-3.54978l-0.0102,-0.01956c0,0 0,-0.75 0.75,-0.75z"/><path d="M254.37073,183.80832c0,0.75 -0.75,0.75 -0.75,0.75h-1c-0.96987,0 -2.91381,0.28331 -3.71469,-0.27765c-0.13755,-0.09635 -0.25269,-0.19672 -0.3481,-0.30047c-0.43862,1.12179 -1.49803,2.26804 -2.14773,2.62844c-2.60963,1.44757 -6.40048,2.03414 -7.80988,-1.07808c-0.05676,-4.26474 -0.03671,-8.46294 2.41197,-12.16076c2.01028,-3.03579 5.48171,-1.75586 7.33694,0.54144c0,0 0.46852,0.58565 -0.11713,1.05417c-0.58565,0.46852 -1.05417,-0.11713 -1.05417,-0.11713c-1.90949,-2.41403 -4.24176,-2.22497 -5.54528,0.61212c-1.50406,3.27356 -1.49867,6.20476 -1.56295,9.76856c0.71123,1.88899 5.02334,1.0644 6.15795,-0.231c0.09655,-0.11023 1.13442,-1.83563 0.99412,-2.02636c-0.46299,-0.62939 -2.52809,-0.92012 -3.26678,-1.16604l-0.1914,0.03849c0,0 -0.75,0 -0.75,-0.75c0,-0.75 0.75,-0.75 0.75,-0.75l0.66574,0.03849c1.13652,0.37928 3.04638,0.67104 3.91867,1.63988c0.175,-0.50056 0.43064,-0.99625 0.57893,-1.44118c1.2016,-3.60523 1.91075,-9.34744 4.26049,-12.25304c0,0 0.48014,-0.57617 1.0563,-0.09603c0.57617,0.48014 0.09603,1.0563 0.09603,1.0563c-1.76365,2.0327 -2.32062,6.55365 -3.19614,9.18006c-0.13837,0.41508 -1.60316,4.51423 -1.37962,4.58174c0.80041,0.24173 2.01615,0.00806 2.85674,0.00806h1c0,0 0.75,0 0.75,0.75z"/><path d="M262.86102,183.46712c0.00412,-0.18547 0.0835,-0.39509 0.34369,-0.56855c0.62404,-0.41603 1.04006,0.20801 1.04006,0.20801l-0.10115,1.55611c-2.01339,0.6707 -7.23329,1.69787 -8.63519,-0.54614c-0.25928,-0.41502 -0.06352,-2.24282 0.1262,-3.8058c-0.02895,-0.01919 -0.05731,-0.0415 -0.08474,-0.06733c-0.01333,0.12272 -0.0271,0.24501 -0.04143,0.36681c0,0 -0.08763,0.74486 -0.83249,0.65723c-0.74486,-0.08763 -0.65723,-0.83249 -0.65723,-0.83249c0.29032,-2.46773 0.36931,-5.11764 1.0165,-7.51978c0.2646,-0.9821 0.69069,-2.89747 1.99036,-3.12386c1.47477,-0.25689 4.07149,0.91529 5.44512,1.46348l0.34258,0.16839c0,0 0.67082,0.33541 0.33541,1.00623c-0.33541,0.67082 -1.00623,0.33541 -1.00623,0.33541l-0.22885,-0.11732c-1.30248,-0.52229 -3.15241,-1.34632 -4.55488,-1.39366c-0.73198,-0.02471 -0.67546,1.31203 -0.86678,2.019c-0.49529,1.83013 -0.64455,3.81801 -0.8216,5.74793c0.04958,-0.03016 0.08351,-0.0447 0.08351,-0.0447c0.01491,-0.00638 0.02982,-0.01272 0.04474,-0.01901c0.04344,-0.38182 0.07212,-0.68639 0.07212,-0.86306c0,0 0,-0.75 0.75,-0.75c0.75,0 0.75,0.75 0.75,0.75c0,0.11255 0.00133,0.22607 0.00363,0.34036c1.17674,-0.30064 2.38824,-0.44367 3.60736,-0.61088c0.24756,-0.42976 0.7861,-0.32206 0.7861,-0.32206l0.08379,0.19634c0.12004,-0.01857 0.24008,-0.0378 0.36011,-0.05784l-0.21736,0.39237l0.46396,1.08722c-1.69146,0.28129 -3.4092,0.37573 -5.02925,0.8489c0.02033,0.65537 0.0203,1.30983 -0.06395,1.93151c-0.0749,0.5527 -0.80194,1.1383 -0.48922,1.60013c0.68827,1.01647 4.19362,0.41453 5.98513,-0.03297z"/></g></g></svg>