<svg version="1.1" xmlns="http://www.w3.org/2000/svg" xmlns:xlink="http://www.w3.org/1999/xlink" width="218.78427" height="52.672"><g transform="translate(-137.169,-153.32)"><g data-paper-data="{&quot;isPaintingLayer&quot;:true}" fill="none" fill-rule="nonzero" stroke="none" stroke-width="1" stroke-linecap="butt" stroke-linejoin="miter" stroke-miterlimit="10" stroke-dasharray="" stroke-dashoffset="0" font-family="none" font-weight="none" font-size="none" text-anchor="none" style="mix-blend-mode: normal"><path d="M355.95327,197.70179c0,4.57816 -9.26577,8.29021 -20.68811,8.29021h-177.41046c-11.42474,0 -20.68571,-3.71301 -20.68571,-8.29021v-36.09254c0,-4.57816 9.26096,-8.28925 20.68571,-8.28925h177.40805c11.42955,0 20.68811,3.71109 20.68811,8.28925v36.09254z" data-paper-data="{&quot;origPos&quot;:null}" fill="#66b3e3"/><path d="M350.18665,162.38535v34.03794c0,2.60041 -5.75733,4.71563 -12.84327,4.71563h-182.56939c-7.07852,0 -12.8408,-2.11522 -12.8408,-4.71563v-34.03885c0,-2.60041 5.76228,-4.71563 12.8408,-4.71563h182.56939c7.08594,0 12.84327,2.11613 12.84327,4.71654z" data-paper-data="{&quot;origPos&quot;:null}" fill="#27aae1"/><text transform="translate(146.15387,188.31377) scale(0.70979,0.70979)" font-size="40" xml:space="preserve" data-paper-data="{&quot;origPos&quot;:null}" fill="#000000" fill-rule="nonzero" stroke="none" stroke-width="1" stroke-linecap="butt" stroke-linejoin="miter" stroke-miterlimit="10" stroke-dasharray="" stroke-dashoffset="0" font-family="Serif" font-weight="normal" text-anchor="start" style="mix-blend-mode: normal"><tspan x="0" dy="0">Return to Menu</tspan></text></g></g></svg>