<svg version="1.1" xmlns="http://www.w3.org/2000/svg" xmlns:xlink="http://www.w3.org/1999/xlink" width="55.47861" height="18.23826" viewBox="0,0,55.47861,18.23826"><g transform="translate(-142.54908,-144.66741)"><g data-paper-data="{&quot;isPaintingLayer&quot;:true}" fill-rule="nonzero" stroke="none" stroke-width="0.5" stroke-linecap="butt" stroke-linejoin="miter" stroke-miterlimit="10" stroke-dasharray="" stroke-dashoffset="0" style="mix-blend-mode: normal"><path d="M156.51057,147.93345c0,0.75 -0.75,0.75 -0.75,0.75c-1.50989,0 -3.51674,0 -5.22606,0c0.1769,0.92453 -0.49847,3.0046 -0.58397,3.77628c-0.22557,2.03568 -0.32237,4.09723 -0.77778,6.11111c0.00256,0.84847 -0.10552,1.63031 -0.22528,2.46867l0.00754,0.00505c0,0 0,0.75 -0.75,0.75c-0.75,0 -0.75,-0.75 -0.75,-0.75l0.00754,-0.21718c0.11821,-0.82746 0.2168,-1.58194 0.21916,-2.42022c0.66488,-3.04079 1.11403,-6.4506 1.3621,-9.4751c0.04708,-0.57404 -1.15173,-0.02639 -1.72769,-0.02639c-1.26379,0 -2.50428,-0.20945 -3.58397,0.5407c0,0 -0.62404,0.41603 -1.04006,-0.20801c-0.41603,-0.62404 0.20801,-1.04006 0.20801,-1.04006c1.00707,-0.6518 3.96042,-1.2708 5.90496,-0.8331c0.21954,-0.18175 0.51106,-0.18175 0.51106,-0.18175c1.88889,0 3.77778,0 5.66667,0h0.77778c0,0 0.75,0 0.75,0.75z" fill="#ff0000"/><path d="M163.39366,147.06265c0.09303,0.74421 -0.65118,0.83723 -0.65118,0.83723l-0.83194,0.10175c-1.46607,0.42275 -2.85349,0.71404 -4.28962,0.43837c-0.01197,2.52074 -0.16242,5.03897 -0.20829,7.56455c0.08008,-0.09023 0.15412,-0.13959 0.15412,-0.13959c1.28825,-0.85791 2.06701,-1.29408 3.61936,-1.50545l0.46721,-0.36636c0,0 0.60695,-0.44057 1.04753,0.16638c0.44057,0.60695 -0.16638,1.04753 -0.16638,1.04753l-0.78517,0.54271c-1.556,0.23213 -2.08,0.5153 -3.35049,1.36326c0,0 -0.58338,0.38892 -0.99807,-0.14937c-0.00085,0.13805 -0.00129,0.27612 -0.00129,0.41422c0,0.22633 0.00026,1.90505 -0.00115,1.93036c-0.0213,0.38363 -0.54778,1.00788 -0.18609,1.13754c0.99101,0.35528 3.89077,-0.37346 5.10391,-0.37346c0.42963,0.0105 0.86893,-0.09474 1.26012,-0.27269l-0.12378,0.04792c0,0 0.53033,-0.53033 1.06066,0c0.53033,0.53033 0,1.06066 0,1.06066l-0.346,0.27014c-0.58356,0.23956 -1.22026,0.38357 -1.851,0.39397c-1.1867,0 -5.08893,0.84086 -6.0072,0.07098c-0.88585,-0.74269 -0.40887,-2.53013 -0.40946,-3.48765c-0.00207,-3.3398 0.22389,-6.67088 0.22222,-10c0,0 0,-0.23169 0.12877,-0.43752c-0.04166,-0.13202 -0.04401,-0.29488 0.03009,-0.49249c0.26334,-0.70225 0.96559,-0.4389 0.96559,-0.4389c1.45198,0.56907 2.90576,0.15842 4.36446,-0.25483l0.94584,-0.12047c0,0 0.74421,-0.09303 0.83723,0.65118z" fill="#ff6b00"/><path d="M169.11912,162.01934c-0.53033,-0.53033 0,-1.06066 0,-1.06066l0.22477,0.08589c0,-0.55556 0,-1.11111 0,-1.66667c0,-2.7037 0,-5.40741 0,-8.11111c0,-0.98438 -0.01492,-1.93738 -0.10652,-2.91718c-0.03127,-0.33443 0.25395,-1.18841 -0.0289,-1.00726c-1.10258,0.70617 -2.72494,0.42583 -4.07425,0.09648c0,0 -0.72761,-0.1819 -0.54571,-0.90951c0.1819,-0.72761 0.90951,-0.54571 0.90951,-0.54571c0.71453,0.18382 2.2038,0.5568 2.93409,0.34312c0.35092,-0.10268 0.64177,-0.57502 0.99165,-0.46886c1.43155,0.43433 1.36217,2.23556 1.41898,3.36743c0.16897,3.36629 0.00115,6.78135 0.00115,10.15259c0,0.55556 0,1.11111 0,1.66667l-0.66411,0.97477c0,0 -0.53033,0.53033 -1.06066,0z" fill="#faff00"/><path d="M171.06274,162.21031c-0.01708,0.17268 -0.12051,0.69537 -0.74662,0.69537c-0.75,0 -0.75,-0.75 -0.75,-0.75l0.21967,-0.75255c0.89309,-0.77597 0.29645,-2.14742 0.22622,-3.20084c-0.24007,-3.6011 -0.33478,-7.07923 -0.33478,-10.71327c0,0 0,-0.18938 0.09516,-0.37781c-0.07382,-0.1195 -0.11607,-0.27944 -0.08937,-0.49299c0.09303,-0.74421 0.83723,-0.65118 0.83723,-0.65118c1.64453,0.20842 3.2766,0.12427 4.91202,-0.10936l0.21718,-0.00754c0,0 0.75,0 0.75,0.75c0,0.75 -0.75,0.75 -0.75,0.75l-0.00505,-0.00754c-1.48939,0.21277 -2.97378,0.30288 -4.46717,0.19509c0.00084,3.59025 0.09461,7.01241 0.33188,10.5714c0.10645,1.59676 0.55379,2.81924 -0.44638,4.10124z" fill="#14ff00"/><path d="M187.5425,161.71331c-0.33541,0.67082 -1.00623,0.33541 -1.00623,0.33541l-0.41714,-0.2516c-0.79918,-0.81125 -1.13578,-1.46821 -1.4195,-2.57065c0,0 -0.04865,-0.19458 0.005,-0.40765c-1.9863,-0.79486 -4.06055,-1.50542 -5.64424,-2.82139c0.06948,1.12465 0.11684,2.25082 0.11684,3.38048v0.55556c0,0 0,0.35197 -0.24112,0.57368c0.11109,0.23557 0.21216,0.47587 0.30448,0.71853l0.04775,0.93001c0,0 0,0.75 -0.75,0.75c-0.75,0 -0.75,-0.75 -0.75,-0.75l0.04775,-0.40332c-0.18069,-0.49031 -0.40673,-0.9701 -0.69957,-1.40287c0,0 -0.41603,-0.62404 0.20801,-1.04006c0.11874,-0.07916 0.22995,-0.12066 0.3322,-0.13598c-0.00823,-1.70196 -0.11752,-3.39716 -0.24529,-5.09169c-0.05371,-0.09347 -0.1057,-0.18905 -0.15589,-0.28683c0.0423,-0.01801 0.08566,-0.03582 0.13001,-0.05345c-0.18206,-2.37534 -0.38957,-4.75018 -0.395,-7.14135c0,0 0,-0.09582 0.03425,-0.21896c-0.00417,-0.01415 -0.00813,-0.02868 -0.01186,-0.04358c-0.1819,-0.72761 0.54571,-0.90951 0.54571,-0.90951c1.5145,-0.37639 3.18348,-1.14453 4.77676,-0.53088c4.40139,1.69521 1.58578,10.10011 -2.5889,9.69454c0.4255,0.30476 0.82873,0.7329 1.13553,0.93197c1.57891,1.02444 3.53728,1.53547 5.26507,2.27595l0.346,0.27014c0,0 0.53033,0.53033 0,1.06066c-0.08061,0.08061 -0.16122,0.13671 -0.23997,0.1739c0.17582,0.57607 0.39657,0.93182 0.90663,1.43211l0.0273,-0.02938c0,0 0.67082,0.33541 0.33541,1.00623zM183.04275,150.49389c0.15995,-0.51479 -0.18776,-1.06227 -0.25075,-1.59765c-0.37475,-3.18494 -1.8394,-2.79199 -4.28155,-2.15863c0.00176,2.18514 0.17932,4.35558 0.35074,6.52566c1.68691,-0.51221 3.67702,-1.14554 4.18156,-2.76938z" fill="#00ffff"/><path d="M187.9706,162.56214c-0.7398,-0.1233 -0.6165,-0.86309 -0.6165,-0.86309l0.14866,-0.80671c1.71595,-4.5573 0.32903,-9.57311 -0.58874,-14.14513c0,0 -0.14709,-0.73544 0.58835,-0.88252c0.73544,-0.14709 0.88252,0.58835 0.88252,0.58835c0.97224,4.88038 2.3389,10.10381 0.52237,14.96599l-0.07356,0.52662c0,0 -0.1233,0.7398 -0.86309,0.6165z" fill="#0029ff"/><path d="M191.04905,160.47406c0.23717,-0.71151 0.94868,-0.47434 0.94868,-0.47434l0.46827,0.17144c0.90803,0.52961 3.16634,1.14497 3.96664,-0.03604c0.46088,-0.68013 -0.51324,-2.89235 -0.77598,-3.5111c-1.11595,-1.6587 -2.78088,-1.08213 -4.03959,-2.66935c-2.24169,-2.82676 -3.75211,-7.38766 1.35669,-8.20597c0.96357,-0.15434 1.56627,0.04537 2.48945,0.2271c0,0 0.73544,0.14709 0.58835,0.88252c-0.14709,0.73544 -0.88252,0.58835 -0.88252,0.58835c-0.67743,-0.13791 -1.25635,-0.32533 -1.955,-0.21734c-3.93635,0.60843 -1.83965,3.86875 -0.42109,5.79403c0.7697,1.04464 2.02935,0.51293 2.95554,1.18616c0.24448,0.1777 1.00628,1.36634 1.22709,1.70005c0.48052,1.11311 1.55412,3.70152 0.77957,4.93334c-1.27698,2.03087 -4.34924,1.5773 -6.03336,0.63062l-0.1984,-0.05078c0,0 -0.71151,-0.23717 -0.47434,-0.94868z" fill="#cc00ff"/></g></g></svg>